<svg height="512pt" viewBox="0 -145 512.001 512" width="512pt" xmlns="http://www.w3.org/2000/svg"><path d="m492.246094 137.582031h-10.464844c-2.144531-5.074219-5.0625-9.660156-8.59375-13.640625v-31.148437c0-14.949219-12.160156-27.113281-27.109375-27.113281h-37.898437v-26.875c0-9.242188-7.519532-16.761719-16.761719-16.761719h-21.589844c-18.757813 0-34.019531 15.261719-34.019531 34.019531v9.617188h-71.292969c-14.246094 0-27.472656 6.421874-36.289063 17.617187-1.019531 1.296875-2.695312 2.070313-4.480468 2.070313h-35.859375l37.730469-45.789063 20.429687 16.835937c1.394531 1.148438 3.074219 1.703126 4.75 1.703126 2.152344 0 4.292969-.925782 5.765625-2.71875 2.625-3.183594 2.171875-7.890626-1.011719-10.515626l-52.398437-43.175781c-3.183594-2.625-7.890625-2.171875-10.515625 1.015625-2.625 3.183594-2.167969 7.890625 1.015625 10.515625l20.433594 16.835938-26.925782 32.671875-14.972656-12.636719c-.03125-.023437-.058594-.046875-.085938-.070313-21.195312-17.355468-52.609374-14.277343-70.027343 6.863282l-23.453125 28.464844h-9.847656c-20.347657 0-36.898438 16.550781-36.898438 36.898437v15.316406h-12.121094c-10.890625 0-19.753906 8.859375-19.753906 19.753907v45.820312c0 10.894531 8.863281 19.757812 19.753906 19.757812h22.25c4.125 0 7.46875-3.34375 7.46875-7.472656 0-4.125-3.34375-7.46875-7.46875-7.46875h-22.25c-2.652344 0-4.8125-2.160156-4.8125-4.816406v-45.820312c0-2.652344 2.160156-4.8125 4.8125-4.8125h304.980469c4.125 0 7.46875-3.34375 7.46875-7.472657 0-4.125-3.34375-7.46875-7.46875-7.46875h-137.628906c-7.761719-18.277343-25.644531-30.269531-45.824219-30.269531-20.207031 0-38.0625 11.984375-45.820312 30.269531h-48.644532v-15.316406c0-12.109375 9.847656-21.957031 21.957032-21.957031h154.972656c6.417968 0 12.332031-2.832032 16.222656-7.765625 5.960938-7.574219 14.910156-11.921875 24.546875-11.921875h181.5625c6.707031 0 12.167969 5.460937 12.167969 12.171875v19.726562c-6.742188-3.351562-14.320313-5.207031-22.289063-5.207031-19.980469 0-38.070312 12.199219-45.8125 30.269531h-30.050781c-4.125 0-7.472656 3.34375-7.472656 7.472657 0 4.125 3.34375 7.46875 7.472656 7.46875h132.152344c2.652344 0 4.8125 2.160156 4.8125 4.8125v45.820312c0 2.65625-2.160156 4.816406-4.8125 4.816406h-416.375c-4.125 0-7.472656 3.34375-7.472656 7.46875 0 4.128906 3.34375 7.472656 7.472656 7.472656h416.375c10.894531 0 19.753906-8.863281 19.753906-19.757812v-45.820312c0-10.894532-8.863281-19.753907-19.753906-19.753907zm-350.964844-15.328125c11.835938 0 22.546875 5.894532 28.902344 15.328125h-57.808594c6.351562-9.4375 17.050781-15.328125 28.90625-15.328125zm-27.671875-55.851562c12.183594-14.789063 34.148437-16.953125 48.984375-4.835938l15.066406 12.710938-9.136718 11.089844h-70.542969zm237.140625-10.335938c0-10.519531 8.558594-19.082031 19.082031-19.082031h21.589844c1.003906 0 1.816406.816406 1.816406 1.820313v26.875h-42.484375v-9.613282zm85.207031 66.1875c11.898438 0 22.574219 5.882813 28.914063 15.328125h-57.769532c6.386719-9.351562 17.15625-15.328125 28.855469-15.328125zm0 0"/><path d="m292 122.417969h-28.75c-4.144531 0-7.5-3.359375-7.5-7.5 0-4.144531 3.355469-7.5 7.5-7.5h28.75c4.144531 0 7.5 3.355469 7.5 7.5 0 4.140625-3.355469 7.5-7.5 7.5zm0 0"/><path d="m327.898438 114.714844c0 4.253906-3.445313 7.703125-7.699219 7.703125-4.25 0-7.699219-3.449219-7.699219-7.703125 0-4.25 3.449219-7.699219 7.699219-7.699219 4.253906 0 7.699219 3.449219 7.699219 7.699219zm0 0"/><path d="m355.398438 114.714844c0 4.253906-3.445313 7.703125-7.699219 7.703125-4.25 0-7.699219-3.449219-7.699219-7.703125 0-4.25 3.449219-7.699219 7.699219-7.699219 4.253906 0 7.699219 3.449219 7.699219 7.699219zm0 0"/></svg>