<?xml version="1.0" encoding="iso-8859-1"?>
<!-- Generator: Adobe Illustrator 17.1.0, SVG Export Plug-In . SVG Version: 6.00 Build 0)  -->
<!DOCTYPE svg PUBLIC "-//W3C//DTD SVG 1.1//EN" "http://www.w3.org/Graphics/SVG/1.1/DTD/svg11.dtd">
<svg version="1.1" id="Capa_1" xmlns="http://www.w3.org/2000/svg" xmlns:xlink="http://www.w3.org/1999/xlink" x="0px" y="0px"
	 viewBox="0 0 511.99 511.99" style="enable-background:new 0 0 511.99 511.99;" xml:space="preserve">
<g>
	<path d="M495.983,183.607h-8.435c-1.319-13.239-12.521-23.612-26.101-23.612H207.99v-8h47.86c8.899,0,16.14-7.24,16.14-16.14
		v-31.721c0-8.899-7.24-16.14-16.14-16.14H101.857c-6.958,0-13.111,4.435-15.311,11.036l-10.574,31.721
		c-1.636,4.908-0.807,10.344,2.218,14.542c3.025,4.197,7.919,6.702,13.093,6.702h44.707v8H75.652c-13.458,0-27.333,10-31.588,22.767
		c-0.021,0.061-0.04,0.122-0.059,0.184l-18.831,61.385c-2.292,6.97-1.414,14.007,2.417,19.321
		c3.849,5.341,10.291,8.404,17.718,8.404c0.65,0,1.032,0.352,1.237,0.647s0.403,0.776,0.177,1.387L1.552,396.119
		c-2.583,6.973-1.919,14.053,1.82,19.424c3.739,5.372,10.147,8.452,17.583,8.452H81.73c13.346,0,27.432-9.804,32.068-22.322
		l23.22-62.764h72.292c13.346,0,27.432-9.804,32.035-22.233l17.109-44.62h5.537v71.539c0,13.455,10.946,24.401,24.401,24.401
		h107.016c20.512,0,38.772-13.034,45.437-32.434c0.015-0.043,0.029-0.086,0.043-0.13l33.56-103.429h21.537
		c8.827,0,16.007-7.181,16.007-16.007v-16.381C511.99,190.788,504.81,183.607,495.983,183.607z M255.99,104.135v31.721
		c0,0.077-0.063,0.14-0.14,0.14h-15.86v-32h15.86C255.928,103.995,255.99,104.058,255.99,104.135z M91.171,135.938
		c-0.042-0.059-0.037-0.073-0.02-0.126l10.574-31.721c0.019-0.057,0.072-0.095,0.132-0.095H223.99v32H91.283
		C91.227,135.995,91.212,135.995,91.171,135.938z M151.99,151.995h40v8h-40V151.995z M226.373,311.033
		c-2.302,6.215-10.435,11.876-17.063,11.876h-66.373l18.813-50.854h3.693c2.358,17.459,12.651,36.662,35.951,42.318
		c0.634,0.154,1.269,0.228,1.894,0.228c3.606,0,6.88-2.456,7.768-6.115c1.042-4.294-1.594-8.619-5.887-9.662
		c-5.078-1.232-20.391-6.621-23.65-26.769h59.799L226.373,311.033z M425.692,330.421c-4.462,12.906-16.625,21.574-30.285,21.574
		H288.391c-4.632,0-8.401-3.769-8.401-8.401v-79.539c0-4.418-3.582-8-8-8h-116c-4.033,0-7.369,2.984-7.92,6.866L98.793,396.119
		c-2.302,6.216-10.435,11.876-17.063,11.876H20.954c-2.124,0-3.746-0.581-4.45-1.593c-0.705-1.012-0.686-2.735,0.052-4.728
		l0.737-1.99H81.73c4.418,0,8-3.582,8-8s-3.582-8-8-8H23.215l38.512-104.04c1.988-5.371,1.222-11.383-2.05-16.083
		c-3.272-4.7-8.644-7.506-14.414-7.506c-2.177,0-3.888-0.641-4.693-1.759c-0.805-1.118-0.873-2.943-0.184-5.008
		c0.021-0.061,0.04-0.123,0.059-0.184l2.795-9.11h364.75c4.418,0,8-3.582,8-8s-3.582-8-8-8H48.149l11.122-36.253
		c2.137-6.267,9.769-11.747,16.382-11.747h385.795c5.642,0,10.232,4.59,10.232,10.232v2.459l-11.456,35.308H439.99
		c-4.418,0-8,3.582-8,8s3.582,8,8,8h15.042L425.692,330.421z M495.983,216.003h-16.345l5.319-16.393l11.033,0.005L495.983,216.003z"
		/>
	<path d="M423.99,255.995h-120c-4.418,0-8,3.582-8,8s3.582,8,8,8h120c4.418,0,8-3.582,8-8S428.409,255.995,423.99,255.995z"/>
	<path d="M415.99,287.995h-112c-4.418,0-8,3.582-8,8s3.582,8,8,8h112c4.418,0,8-3.582,8-8S420.409,287.995,415.99,287.995z"/>
	<path d="M399.99,319.995h-96c-4.418,0-8,3.582-8,8s3.582,8,8,8h96c4.418,0,8-3.582,8-8S404.409,319.995,399.99,319.995z"/>
</g>
<g>
</g>
<g>
</g>
<g>
</g>
<g>
</g>
<g>
</g>
<g>
</g>
<g>
</g>
<g>
</g>
<g>
</g>
<g>
</g>
<g>
</g>
<g>
</g>
<g>
</g>
<g>
</g>
<g>
</g>
</svg>
