<svg height="512pt" fill="#FFF" viewBox="0 0 512 512.00003" width="512pt" xmlns="http://www.w3.org/2000/svg"><path d="m486.398438 512c10.347656-.007812 19.667968-6.242188 23.628906-15.800781 3.960937-9.558594 1.777344-20.558594-5.527344-27.882813l-136.398438-136.371094c10.160157-24.75 5.214844-53.132812-12.714843-72.992187-18.574219-19.933594-47.214844-26.925781-72.882813-17.792969-2.757812.980469-4.816406 3.308594-5.460937 6.160156-.644531 2.855469.21875 5.84375 2.289062 7.910157l32.082031 32.085937c1.605469 1.601563 2.503907 3.773438 2.503907 6.039063s-.898438 4.4375-2.503907 6.035156l-12.074218 12.066406c-3.367188 3.234375-8.6875 3.234375-12.054688 0l-32.097656-32.085937c-2.066406-2.066406-5.054688-2.929688-7.90625-2.285156-2.855469.640624-5.183594 2.703124-6.164062 5.460937-9.039063 25.5-2.167969 53.933594 17.519531 72.492187 19.691406 18.558594 48.484375 23.734376 73.402343 13.199219l136.261719 136.261719c4.792969 4.808594 11.308594 7.511719 18.097657 7.5zm-152.601563-162.601562c-1.417969-.003907-2.816406.351562-4.058594 1.03125-16.289062 8.824218-36.078125 8.148437-51.726562-1.765626-15.644531-9.917968-24.703125-27.523437-23.675781-46.019531l20.871093 20.871094c10.132813 9.667969 26.074219 9.667969 36.207031 0l12.074219-12.066406c4.804688-4.800781 7.5-11.3125 7.5-18.101563 0-6.792968-2.695312-13.304687-7.5-18.105468l-20.90625-20.949219c15.183594-.851563 29.957031 5.089843 40.320313 16.214843 14.601562 16.242188 17.546875 39.859376 7.390625 59.195313-1.742188 3.308594-1.125 7.367187 1.519531 10.007813l140.621094 140.628906c3.234375 3.351562 3.1875 8.671875-.105469 11.964844-3.289063 3.289062-8.613281 3.335937-11.960937.101562l-140.535157-140.507812c-1.601562-1.601563-3.769531-2.5-6.035156-2.5zm0 0"/><path d="m283.734375 219.519531c3.121094 3.535157 8.519531 3.871094 12.050781.746094 3.535156-3.121094 3.871094-8.519531.75-12.050781-36.925781-41.835938-99.175781-49.738282-145.378906-18.449219-46.199219 31.289063-61.972656 92.023437-36.832031 141.835937 25.140625 49.816407 83.371093 73.203126 135.984375 54.617188 2.957031-.953125 5.164062-3.433594 5.761718-6.484375.597657-3.046875-.511718-6.179687-2.890624-8.175781-2.378907-1.996094-5.65625-2.542969-8.554688-1.425782-44.519531 15.730469-93.792969-4.054687-115.070312-46.207031-21.273438-42.148437-7.929688-93.542969 31.164062-120.019531 39.097656-26.472656 91.773438-19.789062 123.015625 15.613281zm0 0"/><path d="m204.800781 452.265625h17.066407c9.425781 0 17.066406-7.640625 17.066406-17.066406l.195312-10.949219c13.066406-2.347656 25.746094-6.492188 37.675782-12.320312 2.742187-1.335938 4.566406-4.03125 4.78125-7.078126.214843-3.042968-1.207032-5.96875-3.738282-7.679687-2.527344-1.707031-5.773437-1.9375-8.519531-.601563-10.523437 5.128907-21.703125 8.78125-33.226563 10.84375-8.199218 1.429688-14.191406 8.527344-14.234374 16.847657v10.9375h-17.066407v-10.9375c-.058593-8.3125-6.0625-15.390625-14.25-16.8125-18.003906-3.210938-35.09375-10.296875-50.082031-20.769531-6.800781-4.789063-16.054688-4.023438-21.976562 1.816406l-7.738282 7.757812-12.066406-12.074218 7.75-7.75c5.84375-5.917969 6.605469-15.175782 1.808594-21.972657-10.464844-14.996093-17.550782-32.082031-20.769532-50.082031-1.410156-8.191406-8.492187-14.191406-16.804687-14.242188h-10.9375v-17.066406h10.9375c8.316406-.050781 15.398437-6.054687 16.804687-14.25 3.21875-17.996094 10.304688-35.082031 20.769532-50.074218 4.796875-6.796876 4.035156-16.054688-1.808594-21.972657l-7.75-7.75 12.066406-12.074219 7.75 7.765626c5.921875 5.828124 15.164063 6.585937 21.964844 1.808593 14.992188-10.476562 32.089844-17.5625 50.097656-20.769531 8.183594-1.425781 14.175782-8.503906 14.234375-16.808594v-10.941406h17.066407v10.941406c.058593 8.3125 6.058593 15.390625 14.25 16.808594 18.003906 3.210938 35.089843 10.296875 50.082031 20.769531 6.800781 4.789063 16.050781 4.023438 21.972656-1.816406l7.742187-7.757813 12.066407 12.074219-7.75 7.75c-5.84375 5.917969-6.605469 15.175781-1.808594 21.972657 2.492187 3.578124 4.800781 7.28125 6.910156 11.09375 1.433594 2.746093 4.242188 4.503906 7.339844 4.585937 3.097656.085937 5.996094-1.515625 7.574219-4.183594s1.585937-5.980469.019531-8.652343c-2.417969-4.410157-5.082031-8.683594-7.96875-12.800782l7.746094-7.742187c3.203125-3.199219 5.003906-7.542969 5.003906-12.070313s-1.800781-8.867187-5.003906-12.070312l-12.082031-12.082032c-6.671876-6.640624-17.457032-6.640624-24.132813 0l-7.890625 7.621094c-17.070312-11.882812-36.523438-19.902344-57.003906-23.5v-10.941406c0-9.425781-7.640625-17.066406-17.066406-17.066406h-17.066407c-9.425781 0-17.066406 7.640625-17.066406 17.066406l-.199219 10.949219c-20.484375 3.660156-39.929687 11.746093-56.976562 23.6875l-7.746094-7.765625c-6.679688-6.640625-17.464844-6.640625-24.140625 0l-12.050781 12.066406c-3.203125 3.203125-5.003906 7.546875-5.003906 12.074219 0 4.53125 1.800781 8.875 5.003906 12.074219l7.605468 7.894531c-11.902343 17.070312-19.941406 36.527343-23.554687 57.019531h-10.9375c-9.425781 0-17.066406 7.640625-17.066406 17.066406v17.066406c0 9.425782 7.640625 17.066407 17.066406 17.066407l10.945313.195312c3.660156 20.492188 11.746093 39.933594 23.691406 56.980469l-7.75 7.738281c-3.203125 3.199219-5 7.542969-5 12.070313s1.796875 8.871094 5 12.070312l12.085937 12.082032c6.671875 6.640624 17.457031 6.640624 24.128907 0l7.894531-7.617188c17.066406 11.894531 36.515625 19.929688 57.003906 23.542969v10.9375c0 9.425781 7.640625 17.066406 17.066406 17.066406zm0 0"/><path d="m245.761719 252.585938c1.355469-1.808594 1.9375-4.085938 1.621093-6.324219-.320312-2.242188-1.519531-4.265625-3.328124-5.621094-17.824219-13.367187-42.242188-13.675781-60.394532-.765625-18.15625 12.910156-25.875 36.078125-19.101562 57.300781 6.777344 21.21875 26.496094 35.625 48.773437 35.625 4.714844 0 8.535157-3.820312 8.535157-8.535156 0-4.710937-3.820313-8.53125-8.535157-8.53125-18.851562 0-34.132812-15.28125-34.132812-34.132813 0-18.851562 15.28125-34.136718 34.132812-34.136718 7.390625-.023438 14.585938 2.375 20.480469 6.828125 1.8125 1.359375 4.085938 1.941406 6.328125 1.621093 2.238281-.320312 4.261719-1.515624 5.621094-3.328124zm0 0"/><path d="m221.867188 281.601562c0 4.710938-3.820313 8.53125-8.535157 8.53125-4.710937 0-8.53125-3.820312-8.53125-8.53125 0-4.714843 3.820313-8.535156 8.53125-8.535156 4.714844 0 8.535157 3.820313 8.535157 8.535156zm0 0"/><path d="m486.398438 0h-460.796876c-14.140624 0-25.601562 11.460938-25.601562 25.601562v460.796876c0 14.140624 11.460938 25.601562 25.601562 25.601562h401.066407c4.710937 0 8.53125-3.820312 8.53125-8.535156 0-4.710938-3.820313-8.53125-8.53125-8.53125h-401.066407c-4.714843 0-8.535156-3.820313-8.535156-8.535156v-42.664063h76.800782c4.710937 0 8.53125-3.820313 8.53125-8.535156 0-4.710938-3.820313-8.53125-8.53125-8.53125h-76.800782v-341.335938h477.867188v341.335938c0 4.710937 3.820312 8.53125 8.53125 8.53125 4.714844 0 8.535156-3.820313 8.535156-8.53125v-401.066407c0-14.140624-11.460938-25.601562-25.601562-25.601562zm-469.332032 68.265625v-42.664063c0-4.714843 3.820313-8.535156 8.535156-8.535156h460.796876c4.714843 0 8.535156 3.820313 8.535156 8.535156v42.664063zm0 0"/><path d="m298.667969 426.667969c-4.714844 0-8.535157 3.820312-8.535157 8.53125 0 4.714843 3.820313 8.535156 8.535157 8.535156h51.199219c4.710937 0 8.53125-3.820313 8.53125-8.535156 0-4.710938-3.820313-8.53125-8.53125-8.53125zm0 0"/><path d="m469.332031 102.398438h-187.730469c-4.714843 0-8.535156 3.820312-8.535156 8.535156 0 4.710937 3.820313 8.53125 8.535156 8.53125h187.730469c4.714844 0 8.535157-3.820313 8.535157-8.53125 0-4.714844-3.820313-8.535156-8.535157-8.535156zm0 0"/><path d="m42.667969 119.464844h110.933593c4.710938 0 8.53125-3.820313 8.53125-8.53125 0-4.714844-3.820312-8.535156-8.53125-8.535156h-110.933593c-4.714844 0-8.535157 3.820312-8.535157 8.535156 0 4.710937 3.820313 8.53125 8.535157 8.53125zm0 0"/><path d="m42.667969 153.601562h34.132812c4.710938 0 8.53125-3.820312 8.53125-8.535156 0-4.710937-3.820312-8.53125-8.53125-8.53125h-34.132812c-4.714844 0-8.535157 3.820313-8.535157 8.53125 0 4.714844 3.820313 8.535156 8.535157 8.535156zm0 0"/><path d="m469.332031 136.535156h-110.933593c-4.710938 0-8.53125 3.820313-8.53125 8.53125 0 4.714844 3.820312 8.535156 8.53125 8.535156h110.933593c4.714844 0 8.535157-3.820312 8.535157-8.535156 0-4.710937-3.820313-8.53125-8.535157-8.53125zm0 0"/><path d="m469.332031 170.667969h-93.867187c-4.710938 0-8.53125 3.820312-8.53125 8.53125 0 4.714843 3.820312 8.535156 8.53125 8.535156h93.867187c4.714844 0 8.535157-3.820313 8.535157-8.535156 0-4.710938-3.820313-8.53125-8.535157-8.53125zm0 0"/><path d="m469.332031 204.800781h-93.867187c-4.710938 0-8.53125 3.820313-8.53125 8.53125 0 4.714844 3.820312 8.535157 8.53125 8.535157h93.867187c4.714844 0 8.535157-3.820313 8.535157-8.535157 0-4.710937-3.820313-8.53125-8.535157-8.53125zm0 0"/><path d="m469.332031 238.933594h-85.332031c-4.710938 0-8.535156 3.820312-8.535156 8.53125 0 4.714844 3.824218 8.535156 8.535156 8.535156h85.332031c4.714844 0 8.535157-3.820312 8.535157-8.535156 0-4.710938-3.820313-8.53125-8.535157-8.53125zm0 0"/><path d="m469.332031 273.066406h-68.265625c-4.710937 0-8.53125 3.820313-8.53125 8.535156 0 4.710938 3.820313 8.53125 8.53125 8.53125h68.265625c4.714844 0 8.535157-3.820312 8.535157-8.53125 0-4.714843-3.820313-8.535156-8.535157-8.535156zm0 0"/><path d="m469.332031 307.199219h-68.265625c-4.710937 0-8.53125 3.820312-8.53125 8.535156 0 4.710937 3.820313 8.53125 8.53125 8.53125h68.265625c4.714844 0 8.535157-3.820313 8.535157-8.53125 0-4.714844-3.820313-8.535156-8.535157-8.535156zm0 0"/><path d="m469.332031 341.332031h-34.132812c-4.710938 0-8.53125 3.820313-8.53125 8.535157 0 4.710937 3.820312 8.53125 8.53125 8.53125h34.132812c4.714844 0 8.535157-3.820313 8.535157-8.53125 0-4.714844-3.820313-8.535157-8.535157-8.535157zm0 0"/><path d="m469.332031 375.464844h-17.066406c-4.710937 0-8.53125 3.824218-8.53125 8.535156s3.820313 8.535156 8.53125 8.535156h17.066406c4.714844 0 8.535157-3.824218 8.535157-8.535156s-3.820313-8.535156-8.535157-8.535156zm0 0"/><path d="m51.199219 42.667969c0 4.710937-3.820313 8.53125-8.53125 8.53125-4.714844 0-8.535157-3.820313-8.535157-8.53125 0-4.714844 3.820313-8.535157 8.535157-8.535157 4.710937 0 8.53125 3.820313 8.53125 8.535157zm0 0"/><path d="m85.332031 42.667969c0 4.710937-3.820312 8.53125-8.53125 8.53125-4.714843 0-8.535156-3.820313-8.535156-8.53125 0-4.714844 3.820313-8.535157 8.535156-8.535157 4.710938 0 8.53125 3.820313 8.53125 8.535157zm0 0"/><path d="m119.464844 42.667969c0 4.710937-3.820313 8.53125-8.53125 8.53125-4.714844 0-8.535156-3.820313-8.535156-8.53125 0-4.714844 3.820312-8.535157 8.535156-8.535157 4.710937 0 8.53125 3.820313 8.53125 8.535157zm0 0"/></svg>