<svg id="Layer_35" fill="#FFF" enable-background="new 0 0 64 64" height="512" viewBox="0 0 64 64" width="512" xmlns="http://www.w3.org/2000/svg"><circle cx="13" cy="40" r="6"/><circle cx="32" cy="40" r="6"/><path d="m32 25c-.493 0-.976-.039-1.453-.097-.184-.019-.364-.052-.547-.077v1.004c0 1.058.702 1.977 1.633 2.138.606.104 1.193-.05 1.653-.437.454-.381.714-.939.714-1.531v-1.082c-.33.032-.666.036-1 .049v.033z"/><path d="m24 29.586v8.414h.262c.889-3.449 4.011-6 7.738-6s6.848 2.551 7.738 6h.262v-8.414l13.464-13.464c.346-.346.536-.805.536-1.293 0-1.009-.82-1.829-1.829-1.829-.488 0-.947.19-1.293.536l-6.443 6.442c-2.349 2.35-5.265 3.921-8.436 4.614v1.408c0 1.184-.52 2.299-1.426 3.062-.726.611-1.639.938-2.58.938-.233 0-.468-.02-.702-.061-1.875-.326-3.291-2.092-3.291-4.109v-1.394c-2.707-.702-5.221-2.049-7.317-3.983l-7.5-6.924c-.37-.341-.851-.529-1.354-.529-1.009 0-1.829.82-1.829 1.829 0 .488.19.947.536 1.293z"/><path d="m51 48c-3.356 0-6.49 1.731-8.333 4.528.846 1.643 1.333 3.5 1.333 5.472v3h17v-3c0-5.514-4.486-10-10-10z"/><path d="m30.807 22.922c.444.044.892.066 1.343.07 5.444-.081 9.85-4.528 9.85-9.992 0-5.514-4.486-10-10-10s-10 4.486-10 10c0 5.11 3.854 9.33 8.807 9.922zm-4.912-14.369.813 1.626c1.011-1.89 3.003-3.179 5.292-3.179 3.309 0 6 2.691 6 6s-2.691 6-6 6c-1.31 0-2.555-.415-3.601-1.2l1.201-1.6c.696.524 1.526.8 2.4.8 2.206 0 4-1.794 4-4s-1.794-4-4-4c-1.732 0-3.197 1.113-3.751 2.657l2.509-.627.485 1.94-4.778 1.194-2.359-4.717z"/><circle cx="51" cy="40" r="6"/><path d="m13 48c-5.514 0-10 4.486-10 10v3h17v-3c0-1.972.487-3.829 1.333-5.472-1.843-2.797-4.977-4.528-8.333-4.528z"/><path d="m32 48c-5.514 0-10 4.486-10 10v3h20v-3c0-5.514-4.486-10-10-10z"/><path d="m50 28h2v2h-2z"/><path d="m54 28h2v2h-2z"/><path d="m58 28h2v2h-2z"/><path d="m4 28h2v2h-2z"/><path d="m8 28h2v2h-2z"/><path d="m12 28h2v2h-2z"/></svg>