<?xml version="1.0" encoding="utf-8"?>
<!-- Generator: Adobe Illustrator 23.0.3, SVG Export Plug-In . SVG Version: 6.00 Build 0)  -->
<svg version="1.1" id="Calque_1" xmlns="http://www.w3.org/2000/svg" xmlns:xlink="http://www.w3.org/1999/xlink" x="0px" y="0px"
	 viewBox="0 0 1000 500" style="enable-background:new 0 0 1000 500;" xml:space="preserve">
<style type="text/css">
	.st0{fill:#2D3436;}
	.st1{fill:#FFFFFF;}
	.st2{fill:#67C7EB;}
</style>
<g id="Stark_x5F_Industries">
	<path id="Dash" class="st0" d="M310.2,301.1c0.2-1.2,0.3-1.9,0.5-2.7c218.6-2.6,436.9-5.2,655.6-7.8c-2.4,2.4-141,85.5-141,85.5
		s32.8-25,49.3-37.4c16.5-12.4,33.1-24.8,49.5-37.7C719.6,301.1,515.1,301.1,310.2,301.1z"/>
	<g id="STARK">
		<path id="XMLID_98_" class="st0" d="M686,169c27.4,0,53.9,0.2,80.4,0.2c24.1,0,30.2,18.3,30.2,29.1c0,17-23.3,31.8-28.8,34.2
			c6.6,7.4,9.2,15,11.5,23.5c2.3,8.7,2.5,17.9,3.7,27.4c-16,0-30.7,0-45.9,0c-1.2-7.9-1.9-16.1-3.9-24c-1.6-6.5-4.2-13-7.4-19
			c-2.5-4.7-7-6.4-12.7-2.1c-4.8,14.5-9.8,29.7-14.9,45.1c-31.5,0-63,0-94.9,0c-0.3-5.5-0.6-10.7-0.9-16.4c-15.2,0-30.1,0-46,0
			c-3.7,5-7.9,10.6-12.3,16.5c-16.5,0-33.1,0-51.3,0c31.9-38.8,63.1-76.8,94.1-114.5c16.7,0,32.9,0,49.7,0
			c4.4,35.7,9.1,74.1,13.5,109.6C650.5,278.8,674.2,204.9,686,169z M720.6,215.5c7.7,1.3,14.3-0.1,20.1-4.1c5.7-3.9,8.6-10,6.9-14.4
			c-2.6-6.5-8.3-6.3-13.8-6.2c-1.8,0-3.5,0.5-5.5,0.8C725.8,199.6,723.3,207.4,720.6,215.5z M601.3,241.4c-0.5-11.4-1-22.1-1.5-32.7
			c-0.5-0.1-0.9-0.2-1.4-0.3c-7.7,10.7-15.4,21.5-23.7,33C584.2,241.4,592.3,241.4,601.3,241.4z"/>
		<path id="XMLID_93_" class="st0" d="M556.2,169.1c-3.6,10.3-6.9,19.7-10.2,29.4c-12.7,0-25.1,0-38.1,0
			c-9.3,28.3-18.5,56.4-27.9,84.9c-16.4,0-32.7,0-49.7,0c9.2-28.2,18.3-56.1,27.4-84.3c-23.3,0-40.5,0.2-63.1,0.2
			c-7.9,0-18.1,1.2-18.1,7.3c0,5.6,10,4,26.4,16.7c17.3,13.5,17.6,33,0.6,46.9c-9.8,8-21.3,12.2-33.7,14.2
			c-20,3.3-39.5,1.2-59.6-6.1c2-10,4-19.9,6-29.9c18.4,3.7,48.9,9.4,53.5,0.7c3.5-6.6-16.4-11.4-20.5-13.2
			c-16-7.3-21.8-21.6-15.1-38c7-17,21.5-24.1,38.3-27.5c6-1.2,12.2-1.6,18.4-1.6c53.3-0.1,106.5-0.1,159.8-0.1
			C552.2,168.8,553.8,169,556.2,169.1z"/>
		<path id="XMLID_87_" class="st0" d="M856.2,219.4c21.5-17.6,41.7-34,61.8-50.4c15.6,0,31,0,48.3,0c-23.5,19.2-45.9,37.5-68.7,56.2
			c10.1,19.2,20.1,38.3,30.5,58.1c-18.9,0-37.2,0-56.5,0c-7-13.2-14.4-27-22.5-42.3c-5,14.9-9.5,28.5-14.1,42.4
			c-16.4,0-32.7,0-49.7,0c12.5-38.1,24.8-76,37.3-114.2c16.3,0,32.4,0,49.7,0C867.1,185.5,861.9,201.6,856.2,219.4z"/>
	</g>
	<g id="INDUSTRIES">
		<path id="XMLID_97_" class="st0" d="M860.3,314c-1.1,3.1-2.1,6-3.2,9.2c-6.2-2.7-12.7-3.4-13.2-0.2c-0.2,3,5.5,3.9,6.3,4.2
			c6.6,2.6,8,9.1,3,14.2c-3.6,3.7-8.3,5.1-13.1,6.1c-1.7,0.3-3.4,0.5-5.1,0.5c-15,0-30,0-45,0c-0.8,0-1.6,0-2.7,0
			c4-12.2,7.9-24.1,11.8-36.2c10.3,0,20.6,0,31.2,0c-1.1,3.1-2.1,6.1-3.2,9.3c-5.1,0-10.2,0-15.3,0c-0.5,1.5-0.9,2.8-1.5,4.4
			c4.7,0,9.1,0,13.8,0c-0.9,2.9-1.8,5.4-2.7,8.2c-4.6,0-9.1,0-13.8,0c-0.5,1.6-1,3-1.6,4.7c0.8,0.1,1.4,0.2,2,0.2
			c7.7,0,15.4,0.1,23.1,0c2.4,0,9,0,9.2-2.2c0.1-1.8-5.9-2.9-9-5.5c-4.9-4.2-4-9.4-1-12.7c3.1-3.6,7.3-5.4,11.9-6.1
			C848.6,311.1,854.5,311.8,860.3,314z"/>
		<path id="XMLID_94_" class="st0" d="M755.8,347.9c-0.5-3.1-0.9-6.1-1.6-9c-0.4-1.6-1.1-3.1-2-4.5c-0.7-1.2-1.8-1.9-3.5-1.1
			c-1.6,4.8-3.2,9.7-4.8,14.6c-5.2,0-10.3,0-15.7,0c3.9-12.1,7.9-24,11.8-36.2c2.7,0,5.4,0,8,0c4.5,0,9.1,0,13.6,0c1,0,2,0,3,0.1
			c3.9,0.4,7.4,1.6,8.9,5.7c1.5,4.1-0.1,7.5-3.1,10.3c-1.5,1.4-3.3,2.5-5.2,3.9c3.4,3.9,4.3,8.7,4.6,13.7c0.2,0,0.3,0,0.5,0
			c3.7-11.2,7.3-22.3,11-33.5c5.2,0,10.3,0,15.7,0c-4,12.1-7.9,24-11.8,36.1C775.4,347.9,765.6,347.9,755.8,347.9z M750.9,326.5
			c2.5,0.3,4.5-0.1,6.2-1.5c1.4-1.1,2.6-2.5,1.9-4.4c-0.7-1.9-2.4-1.8-4-1.9c-0.5,0-1,0.1-1.6,0.2
			C752.6,321.3,751.8,323.7,750.9,326.5z"/>
		<path id="XMLID_91_" class="st0" d="M535,311.8c4.8,0,9.5,0,14.3,0c3.5,5.2,7.1,10.4,10.9,16.1c1.9-5.6,3.6-10.8,5.3-16
			c5.3,0,10.3,0,15.7,0c-4,12.1-7.9,24.1-11.8,36.1c-5.3,0-10.4,0-15.8,0c-3.1-4.9-6.3-9.8-9.7-15.3c-1.7,5.3-3.3,10.3-5,15.3
			c-5.2,0-10.3,0-15.7,0C527.2,335.8,531.1,323.8,535,311.8z"/>
		<path id="XMLID_88_" class="st0" d="M584.9,312c8.4,0,16.6-0.7,24.5,0.2c9.8,1.1,14.3,9.2,11.1,18.5c-3.4,9.8-10.6,15.3-20.7,16.7
			c-5.9,0.8-11.9,0.4-17.9,0.5c-2.8,0.1-5.6,0-8.8,0C577.1,335.8,581,323.8,584.9,312z M597.5,321.6c-0.9,2.8-1.8,5.5-2.7,8.3
			c-0.9,2.7-1.8,5.4-2.6,8.1c7.2,1.5,13.6-4.8,14.4-10.6c0.4-3.1-1.4-5.4-4.5-5.7C600.6,321.4,599.2,321.6,597.5,321.6z"/>
		<path id="XMLID_86_" class="st0" d="M628.2,311.8c5.4,0,10.4,0,15.7,0c-0.9,2.6-1.7,5.1-2.5,7.7c-1.3,4.3-2.7,8.5-3.8,12.8
			c-0.5,1.9-0.4,4.1,1.6,5.2c2,1.1,4.1,0.3,5.8-1c2.3-1.8,3.5-4.3,4.4-7c1.7-5.2,3.4-10.4,5.2-15.6c0.2-0.7,0.5-1.3,0.8-2.1
			c5.2,0,10.3,0,15.6,0c-1.7,4.8-3.2,9.6-4.9,14.3c-1.1,3.1-2.3,6.2-3.7,9.2c-3.1,6.7-8.4,10.6-15.7,11.8
			c-5.4,0.9-10.7,1.4-16.1,0.1c-7.3-1.8-10.9-7.1-9.1-14.4C623.4,325.7,625.9,318.8,628.2,311.8z"/>
		<path id="XMLID_85_" class="st0" d="M505,347.9c3.9-12.1,7.8-24,11.8-36.1c5.1,0,10.2,0,15.7,0c-3.9,12.1-7.9,24-11.8,36.1
			C515.5,347.9,510.4,347.9,505,347.9z"/>
		<path id="XMLID_1_" class="st0" d="M739.3,311.9c-1.1,3.2-2.2,6.2-3.2,9.3c-4,0-7.9,0-12,0c-2.9,8.9-5.8,17.8-8.8,26.8
			c-5.2,0-10.3,0-15.7,0c2.9-8.9,5.8-17.7,8.7-26.6c-7.4,0-12.8,0.1-19.9,0.1c-2.5,0-5.7,0.4-5.7,2.3c0,1.8,3.1,1.2,8.3,5.3
			c5.5,4.2,5.6,10.4,0.2,14.8c-3.1,2.5-6.7,3.8-10.6,4.5c-6.3,1-12.5,0.4-18.8-1.9c0.6-3.2,1.3-6.3,1.9-9.4c5.8,1.2,15.4,3,16.9,0.2
			c1.1-2.1-5.2-3.6-6.5-4.2c-5-2.3-6.9-6.8-4.8-12c2.2-5.4,6.8-7.6,12.1-8.7c1.9-0.4,3.9-0.5,5.8-0.5c16.8,0,33.6,0,50.4,0
			C738.1,311.8,738.6,311.8,739.3,311.9z"/>
	</g>
</g>
<g id="Heart">
	<g id="Circle_x5F_0">
		<path id="XMLID_322_" class="st1" d="M195.2,274.4c-18.3,0-33.2-14.9-33.2-33.2s14.9-33.2,33.2-33.2c18.3,0,33.2,14.9,33.2,33.2
			S213.5,274.4,195.2,274.4z"/>
		<path id="XMLID_290_" class="st2" d="M195.2,210.1c17.2,0,31.2,14,31.2,31.2s-14,31.2-31.2,31.2s-31.2-14-31.2-31.2
			S178,210.1,195.2,210.1 M195.2,206.1c-19.4,0-35.2,15.8-35.2,35.2s15.8,35.2,35.2,35.2s35.2-15.8,35.2-35.2
			S214.6,206.1,195.2,206.1L195.2,206.1z"/>
	</g>
	<g id="Circle_x5F_1">
		<g id="XMLID_22_">
			<path id="XMLID_359_" class="st1" d="M233.6,215c-3.3-4.8-7.5-9-12.3-12.3l6.4-11.2c6.7,4.4,12.6,10.3,17,17L233.6,215z"/>
			<path id="XMLID_329_" class="st2" d="M228.3,193.7c5.6,3.9,10.5,8.8,14.4,14.4l-8.6,5c-3-4.1-6.6-7.7-10.7-10.7L228.3,193.7
				 M227.2,189.4l-7.9,13.8c5.6,3.5,10.3,8.3,13.8,13.8l13.7-7.9C241.9,201.1,235.2,194.4,227.2,189.4L227.2,189.4z"/>
		</g>
		<g id="XMLID_37_">
			<path id="XMLID_326_" class="st1" d="M145.6,208.5c4.4-6.7,10.3-12.6,17-17l6.4,11.2c-4.8,3.3-9,7.5-12.3,12.3L145.6,208.5z"/>
			<path id="XMLID_321_" class="st2" d="M162.1,193.7l4.9,8.6c-4.1,3-7.8,6.6-10.7,10.7l-8.6-5C151.6,202.5,156.5,197.6,162.1,193.7
				 M163.1,189.4c-8,4.9-14.7,11.7-19.7,19.6l13.7,7.9c3.6-5.5,8.3-10.3,13.8-13.8L163.1,189.4L163.1,189.4z"/>
		</g>
		<g id="XMLID_38_">
			<path id="XMLID_317_" class="st1" d="M221.3,279.8c4.8-3.3,9-7.5,12.3-12.3l11.1,6.4c-4.4,6.7-10.3,12.6-17,17L221.3,279.8z"/>
			<path id="XMLID_311_" class="st2" d="M234.1,269.5l8.6,5c-3.9,5.6-8.8,10.5-14.4,14.4l-4.9-8.6
				C227.4,277.2,231.1,273.6,234.1,269.5 M233.2,265.5c-3.6,5.5-8.3,10.3-13.8,13.8l7.9,13.8c8-4.9,14.7-11.7,19.7-19.6L233.2,265.5
				L233.2,265.5z"/>
		</g>
		<g id="XMLID_39_">
			<path id="XMLID_309_" class="st1" d="M168.2,188.1c7.3-3.7,14.8-5.7,22.8-6.1v12.8c-5,0.4-11.1,1.9-16.4,4.5L168.2,188.1z"/>
			<path id="XMLID_306_" class="st2" d="M190,184v9.4c-5,0.5-9.8,1.8-14.5,3.9l-5-8.6c6.2-2.9,12.6-4.4,19.4-5 M193,180.4
				c-10,0.3-18.6,2.8-26.6,7.1l8,13.8c5.7-2.9,11.7-4.7,18.7-5V180.4L193,180.4z"/>
		</g>
		<g id="XMLID_40_">
			<path id="XMLID_304_" class="st1" d="M162.6,290.9c-6.7-4.4-12.6-10.3-17-17l11.1-6.4c3.3,4.8,7.5,9,12.3,12.3L162.6,290.9z"/>
			<path id="XMLID_301_" class="st2" d="M156.3,269.5c3,4.1,6.6,7.7,10.7,10.7l-4.9,8.6c-5.6-3.9-10.5-8.8-14.4-14.4L156.3,269.5
				 M157.2,265.5l-13.7,7.9c5,7.9,11.7,14.7,19.7,19.6l7.9-13.8C165.5,275.8,160.7,271,157.2,265.5L157.2,265.5z"/>
		</g>
		<g id="XMLID_41_">
			<path id="XMLID_299_" class="st1" d="M214.5,199.2c-5.2-2.6-9.5-4.1-17.5-4.5v-12.8c9,0.4,15.9,2.3,23.5,6.2L214.5,199.2z"/>
			<path id="XMLID_296_" class="st2" d="M199,183.8c7.2,0.5,13.4,2,19.8,5.1l-4.7,8.5c-4.5-2.1-8.8-3.5-15.1-4V184 M196,180.4v15.8
				c9,0.3,13.7,2.1,19.3,5l7.6-13.8C215,183.2,207,180.7,196,180.4L196,180.4z"/>
		</g>
		<g id="XMLID_42_">
			<path id="XMLID_294_" class="st1" d="M135.9,238c0.5-9,2.5-16,6.2-23.4l11.2,6.6c-2.6,5.3-4.1,10.8-4.5,16.8H135.9z"/>
			<path id="XMLID_291_" class="st2" d="M142.7,216.5l8.6,5c-2.1,4.7-3.4,9.5-3.9,14.5h-9.9C138,229.1,139.7,222.7,142.7,216.5
				 M141.5,212.3c-4.3,8-6.9,16.7-7.2,26.7h15.8c0.3-7,2.1-13,5.1-18.7L141.5,212.3L141.5,212.3z"/>
		</g>
		<g id="XMLID_43_">
			<path id="XMLID_289_" class="st1" d="M237.1,261.1c2.6-5.2,4.1-10.1,4.5-17.1h12.8c-0.4,8-2.3,15.8-6.2,23.4L237.1,261.1z"/>
			<path id="XMLID_286_" class="st2" d="M253,245c-0.5,7.3-2.2,13.5-5.3,20l-8.5-4.7c2.1-4.5,3.5-8.9,3.9-15.2H253 M256.1,242h-15.8
				c-0.3,9-2.1,13.8-5.1,19.5l13.7,7.6C253.2,261.1,255.7,253,256.1,242L256.1,242z"/>
		</g>
		<g id="XMLID_44_">
			<path id="XMLID_284_" class="st1" d="M241.6,238c-0.4-6-1.9-11.5-4.5-16.9l11.2-6.4c3.7,7.3,5.7,14.3,6.2,23.3H241.6z"/>
			<path id="XMLID_281_" class="st2" d="M247.6,216.5c2.9,6.2,4.7,12.7,5.2,19.5H243c-0.5-5-1.8-9.8-3.9-14.5L247.6,216.5
				 M248.9,212.3l-13.7,8c3,5.7,4.8,11.7,5.1,18.7h15.8C255.7,229,253.2,220.3,248.9,212.3L248.9,212.3z"/>
		</g>
		<g id="XMLID_45_">
			<path id="XMLID_279_" class="st1" d="M197,287.7c8-0.4,12.3-1.9,17.5-4.5l6,11.1c-7.6,3.9-14.5,5.7-23.5,6.2V287.7z"/>
			<path id="XMLID_276_" class="st2" d="M214.1,285.2l4.7,8.5c-6.4,3.1-12.6,4.7-19.8,5.2v-9.8C205.3,288.7,209.6,287.4,214.1,285.2
				 M215.3,281.3c-5.7,2.9-10.3,4.7-19.3,5v15.8c11-0.3,19-2.8,27-7.1L215.3,281.3L215.3,281.3z"/>
		</g>
		<g id="XMLID_46_">
			<path id="XMLID_274_" class="st1" d="M142.1,267.3c-3.9-7.6-5.8-15.3-6.2-23.3h12.8c0.4,7,1.9,12.1,4.5,17.2L142.1,267.3z"/>
			<path id="XMLID_271_" class="st2" d="M147.1,245c0.5,6.4,1.9,10.7,4,15.2l-8.5,4.7c-3.1-6.5-4.7-12.7-5.2-20h9.6 M150.1,242
				h-15.8c0.3,11,2.9,19.1,7.2,27.1l13.7-7.6C152.2,255.8,150.4,251,150.1,242L150.1,242z"/>
		</g>
		<g id="XMLID_47_">
			<path id="XMLID_269_" class="st1" d="M191,300.6c-8-0.5-15.5-2.5-22.8-6.1l6.3-11.2c5.3,2.6,11.4,4,16.4,4.5V300.6z"/>
			<path id="XMLID_263_" class="st2" d="M175.5,285.2c4.7,2.1,9.4,3.4,14.5,3.9v9.9c-6.8-0.6-13.2-2.3-19.4-5.2L175.5,285.2
				 M174.3,281.3l-8,13.8c8,4.3,16.6,6.8,26.6,7.1v-15.8C186,286,180,284.2,174.3,281.3L174.3,281.3z"/>
		</g>
	</g>
	<g id="Circle_x5F_2">
		<g id="XMLID_15_">
			<path id="XMLID_328_" class="st1" d="M124,162.4c2.8-2.5,5.7-4.9,8.8-7.1l11.3,17.5c-1.9,1.4-3.7,2.9-5.4,4.4L124,162.4z"/>
			<path id="XMLID_310_" class="st2" d="M132.4,157.4l9.7,14.9c-1.1,0.9-2.3,1.8-3.3,2.7l-12.6-12.6
				C128.2,160.7,130.3,159,132.4,157.4 M133.2,153.1c-4,2.8-7.8,5.9-11.4,9.2l16.8,16.8c2.4-2.2,4.9-4.2,7.5-6.1L133.2,153.1
				L133.2,153.1z"/>
		</g>
		<g id="XMLID_36_">
			<path id="XMLID_265_" class="st1" d="M142,149.3c2.7-1.6,5.5-3,8.4-4.4l7.8,19.3c-1.6,0.8-3.3,1.6-4.9,2.5L142,149.3z"/>
			<path id="XMLID_261_" class="st2" d="M149.6,147l6.7,16.5c-0.8,0.4-1.6,0.8-2.5,1.3l-9.7-15C145.9,148.8,147.7,147.9,149.6,147
				 M151.2,142.9c-3.9,1.7-7.7,3.7-11.3,5.9l13,20c2.4-1.4,4.8-2.6,7.3-3.8L151.2,142.9L151.2,142.9z"/>
		</g>
		<g id="XMLID_48_">
			<path id="XMLID_258_" class="st1" d="M110.3,177.4c1.9-2.5,3.9-5,6-7.3l14.7,14.7c-1.2,1.4-2.4,2.8-3.5,4.2L110.3,177.4z"/>
			<path id="XMLID_253_" class="st2" d="M116.4,172.3l12.6,12.6c-0.6,0.7-1.2,1.4-1.8,2.1l-14.8-10
				C113.7,175.4,115,173.8,116.4,172.3 M116.3,167.9c-2.9,3.1-5.6,6.4-8.1,9.8l19.7,13.3c1.6-2.2,3.4-4.3,5.2-6.3L116.3,167.9
				L116.3,167.9z"/>
		</g>
		<g id="XMLID_49_">
			<path id="XMLID_249_" class="st1" d="M160.5,140.8c2.9-1,6-1.9,9.1-2.7l4,20.4c-1.8,0.5-3.5,1-5.3,1.6L160.5,140.8z"/>
			<path id="XMLID_246_" class="st2" d="M168.4,140l3.4,17.5c-0.9,0.2-1.8,0.5-2.7,0.8l-6.7-16.5C164.4,141.1,166.4,140.5,168.4,140
				 M170.7,136.3c-4.2,1-8.3,2.2-12.2,3.6l8.9,22.1c2.6-0.9,5.2-1.7,7.9-2.3L170.7,136.3L170.7,136.3z"/>
		</g>
		<g id="XMLID_50_">
			<path id="XMLID_244_" class="st1" d="M89.1,236c0.2-3.3,0.5-6.5,0.9-9.5l20.4,3.9c-0.2,1.9-0.4,4-0.5,5.6H89.1z"/>
			<path id="XMLID_241_" class="st2" d="M91.3,228.5l17.5,3.5c-0.1,1-0.2,2-0.3,3H90.7C90.8,232,91,230.5,91.3,228.5 M88.7,225
				c-0.6,4.2-1,9-1.2,13h23.7c0.1-2,0.4-5.7,0.8-8.4L88.7,225L88.7,225z"/>
		</g>
		<g id="XMLID_51_">
			<path id="XMLID_239_" class="st1" d="M92.1,215.7c0.9-3.7,2-7.3,3.3-10.8l19.1,8.1c-0.8,2.2-1.4,4.4-2,6.7L92.1,215.7z"/>
			<path id="XMLID_236_" class="st2" d="M96.3,206.8l16.4,7c-0.4,1.3-0.9,2.7-1.2,4.1l-17.5-3.4C94.6,211.9,95.4,209.3,96.3,206.8
				 M94.5,202.8c-1.7,4.5-3.2,9.2-4.3,14l23.3,4.5c0.8-3.2,1.7-6.2,2.8-9.2L94.5,202.8L94.5,202.8z"/>
		</g>
		<g id="XMLID_52_">
			<path id="XMLID_234_" class="st1" d="M99.6,194.8c1.4-2.8,2.9-5.6,4.5-8.3l17.2,11.6c-0.9,1.6-1.8,3.2-2.6,4.8L99.6,194.8z"/>
			<path id="XMLID_231_" class="st2" d="M104.6,188.6l14.8,10c-0.5,0.8-0.9,1.6-1.3,2.4l-16.4-7
				C102.6,192.2,103.6,190.4,104.6,188.6 M103.7,184.3c-2.2,3.6-4.3,7.3-6.1,11.2l21.9,9.3c1.2-2.5,2.5-4.9,3.9-7.2L103.7,184.3
				L103.7,184.3z"/>
		</g>
		<g id="XMLID_53_">
			<path id="XMLID_229_" class="st1" d="M179.8,136.1c3-0.4,6.1-0.7,9.2-0.9V156c-1.3,0.1-3.2,0.3-5.1,0.5L179.8,136.1z"/>
			<path id="XMLID_226_" class="st2" d="M187,137v17.6c0,0.1-1.3,0.1-2.2,0.2l-3.7-17.5c1.9-0.2,3.8-0.4,5.8-0.6 M190,133.6
				c0,0.2-8.1,0.5-12.3,1.2l4.6,23.3c2.7-0.4,5.7-0.7,7.7-0.8V133.6L190,133.6z"/>
		</g>
		<g id="XMLID_54_">
			<path id="XMLID_224_" class="st1" d="M277.9,219.6c-0.6-2.3-1.3-4.5-2-6.7l19.1-8.1c1.3,3.5,2.4,7.2,3.3,10.8L277.9,219.6z"/>
			<path id="XMLID_221_" class="st2" d="M294.1,206.8c0.9,2.5,1.7,5.1,2.3,7.7l-17.5,3.4c-0.4-1.4-0.8-2.8-1.2-4.1L294.1,206.8
				 M295.8,202.8l-21.9,9.3c1.1,3,2,6.1,2.8,9.2l23.3-4.5C299,212,297.6,207.4,295.8,202.8L295.8,202.8z"/>
		</g>
		<g id="XMLID_55_">
			<path id="XMLID_219_" class="st1" d="M271.6,202.9c-0.8-1.6-1.7-3.2-2.6-4.8l17.2-11.6c1.6,2.7,3.2,5.5,4.5,8.3L271.6,202.9z"/>
			<path id="XMLID_216_" class="st2" d="M285.7,188.6c1,1.8,2,3.6,3,5.4l-16.4,7c-0.4-0.8-0.9-1.6-1.3-2.4L285.7,188.6 M286.6,184.3
				l-19.7,13.3c1.4,2.3,2.7,4.7,3.9,7.2l21.9-9.3C290.9,191.7,288.9,187.9,286.6,184.3L286.6,184.3z"/>
		</g>
		<g id="XMLID_56_">
			<path id="XMLID_214_" class="st1" d="M262.8,189c-1.1-1.4-2.3-2.9-3.5-4.2l14.7-14.7c2.1,2.3,4.1,4.8,6,7.3L262.8,189z"/>
			<path id="XMLID_211_" class="st2" d="M274,172.3c1.4,1.5,2.7,3.1,3.9,4.8l-14.8,10c-0.6-0.7-1.2-1.4-1.8-2.1L274,172.3
				 M274.1,167.9l-16.8,16.8c1.8,2,3.6,4.1,5.2,6.3l19.7-13.3C279.7,174.3,277,171,274.1,167.9L274.1,167.9z"/>
		</g>
		<g id="XMLID_57_">
			<path id="XMLID_209_" class="st1" d="M90,256.4c-0.4-2.9-0.7-5.7-0.9-9.4h20.8c0.1,1.9,0.3,3.6,0.5,5.3L90,256.4z"/>
			<path id="XMLID_206_" class="st2" d="M108.5,249c0.1,0,0.2,1.5,0.3,2.4l-17.5,3.6c-0.2-1.9-0.4-3.9-0.6-5.9H108 M111.3,246H87.5
				c0.2,5,0.5,8.2,1.2,12.4l23.3-4.5C111.7,251.2,111.4,249,111.3,246L111.3,246z"/>
		</g>
		<g id="XMLID_58_">
			<path id="XMLID_204_" class="st1" d="M251.6,177.1c-1.7-1.5-3.5-3-5.4-4.4l11.3-17.5c3.1,2.2,6,4.6,8.8,7.1L251.6,177.1z"/>
			<path id="XMLID_201_" class="st2" d="M257.9,157.4c2.1,1.6,4.2,3.3,6.2,5L251.5,175c-1.1-0.9-2.2-1.8-3.3-2.7L257.9,157.4
				 M257.1,153.1l-13,20c2.6,1.9,5.1,3.9,7.5,6.1l16.8-16.8C264.9,159,261.1,155.9,257.1,153.1L257.1,153.1z"/>
		</g>
		<g id="XMLID_59_">
			<path id="XMLID_199_" class="st1" d="M205.3,156.5c-1.9-0.3-3.8-0.4-6.3-0.5v-20.8c4.3,0.2,6.9,0.5,9.9,0.9L205.3,156.5z"/>
			<path id="XMLID_196_" class="st2" d="M200,136.7c0,0.1,4.9,0.3,6.9,0.6l-3.2,17.5c-1.1-0.1-1.6-0.2-3.6-0.3V137 M197,133.6v23.7
				c4,0.1,6.5,0.4,9.2,0.8l4-23.3C206.1,134.2,203,133.8,197,133.6L197,133.6z"/>
		</g>
		<g id="XMLID_60_">
			<path id="XMLID_194_" class="st1" d="M222.1,160.1c-1.7-0.6-3.5-1.1-5.3-1.6l4-20.4c3.1,0.8,6.2,1.7,9.1,2.7L222.1,160.1z"/>
			<path id="XMLID_191_" class="st2" d="M221.9,140c2,0.5,4,1.1,5.9,1.7l-6.7,16.5c-0.9-0.3-1.8-0.5-2.7-0.8L221.9,140 M219.6,136.3
				l-4.5,23.3c2.7,0.7,5.3,1.4,7.9,2.3l8.9-22.1C227.9,138.5,223.8,137.3,219.6,136.3L219.6,136.3z"/>
		</g>
		<g id="XMLID_61_">
			<path id="XMLID_189_" class="st1" d="M237,166.8c-1.6-0.9-3.2-1.7-4.9-2.5l7.8-19.3c2.9,1.4,5.7,2.8,8.4,4.4L237,166.8z"/>
			<path id="XMLID_186_" class="st2" d="M240.8,147c1.9,0.9,3.7,1.9,5.5,2.8l-9.7,15c-0.8-0.4-1.6-0.9-2.5-1.3L240.8,147
				 M239.2,142.9l-8.9,22.1c2.5,1.2,4.9,2.4,7.3,3.8l13-20C246.9,146.6,243.1,144.7,239.2,142.9L239.2,142.9z"/>
		</g>
		<g id="XMLID_62_">
			<path id="XMLID_184_" class="st1" d="M268.9,284.4c0.9-1.6,1.8-3.2,2.6-4.8l19.1,8.1c-1.4,2.8-2.9,5.6-4.5,8.3L268.9,284.4z"/>
			<path id="XMLID_181_" class="st2" d="M272.3,281.5l16.4,7c-0.9,1.8-1.9,3.6-3,5.4l-14.8-10C271.4,283.2,271.8,282.3,272.3,281.5
				 M270.8,277.7c-1.2,2.5-2.5,4.9-3.9,7.2l19.7,13.3c2.2-3.6,4.3-7.3,6.1-11.2L270.8,277.7L270.8,277.7z"/>
		</g>
		<g id="XMLID_63_">
			<path id="XMLID_179_" class="st1" d="M259.3,297.7c1.2-1.4,2.4-2.8,3.5-4.2l17.2,11.6c-1.9,2.5-3.9,5-6,7.3L259.3,297.7z"/>
			<path id="XMLID_176_" class="st2" d="M263.1,295.5l14.8,10c-1.3,1.6-2.6,3.2-3.9,4.8l-12.6-12.6
				C262,296.9,262.6,296.2,263.1,295.5 M262.5,291.4c-1.6,2.2-3.4,4.3-5.2,6.3l16.8,16.8c2.9-3.1,5.6-6.4,8.1-9.8L262.5,291.4
				L262.5,291.4z"/>
		</g>
		<g id="XMLID_64_">
			<path id="XMLID_174_" class="st1" d="M246.2,309.8c1.9-1.4,3.7-2.9,5.4-4.4l14.7,14.7c-2.8,2.5-5.7,4.9-8.8,7.1L246.2,309.8z"/>
			<path id="XMLID_171_" class="st2" d="M251.5,307.5l12.6,12.6c-2,1.7-4.1,3.4-6.2,5l-9.7-14.9
				C249.4,309.3,250.5,308.4,251.5,307.5 M251.7,303.3c-2.4,2.2-4.9,4.2-7.5,6.1l13,20c4-2.8,7.8-5.9,11.4-9.2L251.7,303.3
				L251.7,303.3z"/>
		</g>
		<g id="XMLID_65_">
			<path id="XMLID_169_" class="st1" d="M232.2,318.3c1.6-0.8,3.3-1.6,4.9-2.5l11.3,17.5c-2.7,1.6-5.5,3-8.4,4.4L232.2,318.3z"/>
			<path id="XMLID_166_" class="st2" d="M236.5,317.7l9.7,15c-1.8,1-3.6,1.9-5.5,2.8l-6.7-16.5C234.9,318.6,235.7,318.2,236.5,317.7
				 M237.5,313.7c-2.4,1.4-4.8,2.6-7.3,3.8l8.9,22.1c3.9-1.7,7.7-3.7,11.3-5.9L237.5,313.7L237.5,313.7z"/>
		</g>
		<g id="XMLID_66_">
			<path id="XMLID_164_" class="st1" d="M280,252.3c0.2-1.7,0.4-3.4,0.5-5.3h20.8c-0.2,3.7-0.5,6.5-0.9,9.4L280,252.3z"/>
			<path id="XMLID_161_" class="st2" d="M299.7,249c-0.1,0-0.3,3.9-0.6,5.8l-17.5-3.3c0.1-0.9,0.2-2.5,0.3-2.5H300 M302.8,246h-23.7
				c-0.1,3-0.4,5.1-0.8,7.8l23.3,4.7C302.3,254.3,302.7,251,302.8,246L302.8,246z"/>
		</g>
		<g id="XMLID_67_">
			<path id="XMLID_159_" class="st1" d="M280.5,236c-0.1-1.6-0.3-3.7-0.5-5.6l20.4-3.9c0.4,2.9,0.7,6.2,0.9,9.5H280.5z"/>
			<path id="XMLID_156_" class="st2" d="M299.1,228.5c0.2,2,0.4,3.5,0.6,6.5h-17.8c-0.1-1-0.2-2-0.3-3L299.1,228.5 M301.6,225
				l-23.3,4.6c0.4,2.7,0.7,6.4,0.8,8.4h23.7C302.7,234,302.3,229.2,301.6,225L301.6,225z"/>
		</g>
		<g id="XMLID_68_">
			<path id="XMLID_154_" class="st1" d="M216.8,323.9c1.8-0.5,3.5-1,5.3-1.6l7.8,19.3c-2.9,1-6,1.9-9.1,2.7L216.8,323.9z"/>
			<path id="XMLID_151_" class="st2" d="M221.2,324.2l6.7,16.5c-1.9,0.6-3.9,1.2-5.9,1.7l-3.4-17.5
				C219.4,324.8,220.3,324.5,221.2,324.2 M222.9,320.5c-2.6,0.9-5.2,1.7-7.9,2.3l4.5,23.3c4.2-1,8.3-2.2,12.2-3.6L222.9,320.5
				L222.9,320.5z"/>
		</g>
		<g id="XMLID_69_">
			<path id="XMLID_149_" class="st1" d="M95.4,277.7c-1.3-3.5-2.4-7.2-3.3-10.8l20.4-4c0.6,2.3,1.3,4.5,2,6.7L95.4,277.7z"/>
			<path id="XMLID_146_" class="st2" d="M111.4,264.6c0.4,1.4,0.8,2.8,1.2,4.1l-16.4,7c-0.9-2.5-1.7-5.1-2.3-7.7L111.4,264.6
				 M113.6,261.1l-23.3,4.5c1.1,4.8,2.5,9.5,4.3,14l21.9-9.3C115.3,267.4,114.3,264.3,113.6,261.1L113.6,261.1z"/>
		</g>
		<g id="XMLID_70_">
			<path id="XMLID_144_" class="st1" d="M275.8,269.6c0.8-2.2,1.4-4.4,2-6.7l20.4,4c-0.9,3.7-2,7.3-3.3,10.8L275.8,269.6z"/>
			<path id="XMLID_141_" class="st2" d="M279,264.6l17.5,3.4c-0.7,2.6-1.5,5.2-2.3,7.7l-16.4-7C278.2,267.4,278.6,266,279,264.6
				 M276.8,261.1c-0.8,3.2-1.7,6.2-2.8,9.2l21.9,9.3c1.7-4.5,3.2-9.2,4.3-14L276.8,261.1L276.8,261.1z"/>
		</g>
		<g id="XMLID_71_">
			<path id="XMLID_139_" class="st1" d="M116.3,312.4c-2.1-2.3-4.1-4.8-6-7.3l17.2-11.6c1.1,1.4,2.3,2.9,3.5,4.2L116.3,312.4z"/>
			<path id="XMLID_136_" class="st2" d="M127.2,295.5c0.6,0.7,1.2,1.4,1.8,2.1l-12.6,12.6c-1.4-1.5-2.7-3.1-3.9-4.8L127.2,295.5
				 M127.9,291.4l-19.7,13.3c2.5,3.4,5.2,6.7,8.1,9.8l16.8-16.8C131.2,295.7,129.5,293.6,127.9,291.4L127.9,291.4z"/>
		</g>
		<g id="XMLID_72_">
			<path id="XMLID_134_" class="st1" d="M104.2,296.1c-1.6-2.7-3.1-5.5-4.5-8.3l19.1-8.1c0.8,1.6,1.7,3.2,2.6,4.8L104.2,296.1z"/>
			<path id="XMLID_131_" class="st2" d="M118.1,281.5c0.4,0.8,0.9,1.6,1.3,2.4l-14.8,10c-1-1.8-2-3.6-3-5.4L118.1,281.5
				 M119.5,277.7L97.6,287c1.8,3.9,3.9,7.6,6.1,11.2l19.7-13.3C122,282.5,120.7,280.1,119.5,277.7L119.5,277.7z"/>
		</g>
		<g id="XMLID_73_">
			<path id="XMLID_129_" class="st1" d="M132.8,327.2c-3.1-2.2-6-4.6-8.8-7.1l14.7-14.7c1.7,1.5,3.5,3,5.4,4.4L132.8,327.2z"/>
			<path id="XMLID_126_" class="st2" d="M138.8,307.5c1.1,0.9,2.2,1.8,3.3,2.7l-9.7,14.9c-2.1-1.6-4.2-3.3-6.2-5L138.8,307.5
				 M138.7,303.3l-16.8,16.8c3.6,3.3,7.4,6.4,11.4,9.2l13-20C143.6,307.5,141.1,305.5,138.7,303.3L138.7,303.3z"/>
		</g>
		<g id="XMLID_74_">
			<path id="XMLID_124_" class="st1" d="M189,347.3c-3.1-0.2-6.3-0.5-9.2-0.9l4.1-20.4c1.9,0.2,3.8,0.4,5.1,0.5V347.3z"/>
			<path id="XMLID_121_" class="st2" d="M184.8,327.7c0.9,0.1,2.2,0.2,2.2,0.2v17.8c-2-0.1-3.9-0.3-5.8-0.6L184.8,327.7
				 M182.4,324.4l-4.8,23.3c4.2,0.6,8.4,1,12.4,1.2v-23.7C188,325,185.1,324.7,182.4,324.4L182.4,324.4z"/>
		</g>
		<g id="XMLID_75_">
			<path id="XMLID_119_" class="st1" d="M199,326.6c2.5-0.1,4.3-0.3,6.3-0.5l3.6,20.4c-3,0.4-5.6,0.7-9.9,0.9V326.6z"/>
			<path id="XMLID_116_" class="st2" d="M203.8,327.7l3,17.5c-2,0.3-3.7,0.5-6.7,0.6V328C202,327.9,202.7,327.8,203.8,327.7
				 M206.2,324.4c-2.7,0.4-5.2,0.7-9.2,0.8v23.7c6-0.2,9.1-0.5,13.2-1.2L206.2,324.4L206.2,324.4z"/>
		</g>
		<g id="XMLID_76_">
			<path id="XMLID_318_" class="st1" d="M150.4,337.6c-2.9-1.4-5.7-2.8-8.4-4.4l11.3-17.5c1.6,0.9,3.2,1.7,4.9,2.5L150.4,337.6z"/>
			<path id="XMLID_113_" class="st2" d="M153.8,317.7c0.8,0.4,1.6,0.9,2.5,1.3l-6.7,16.5c-1.9-0.9-3.7-1.9-5.5-2.8L153.8,317.7
				 M152.8,313.7l-13,20c3.6,2.2,7.4,4.1,11.3,5.9l8.9-22.1C157.6,316.4,155.2,315.1,152.8,313.7L152.8,313.7z"/>
		</g>
		<g id="XMLID_77_">
			<path id="XMLID_332_" class="st1" d="M169.6,344.3c-3.1-0.8-6.2-1.7-9.1-2.7l7.8-19.3c1.7,0.6,3.5,1.1,5.3,1.6L169.6,344.3z"/>
			<path id="XMLID_320_" class="st2" d="M169.1,324.2c0.9,0.3,1.8,0.5,2.7,0.8l-3.4,17.5c-2-0.5-4-1.1-5.9-1.7L169.1,324.2
				 M167.4,320.5l-8.9,22.1c4,1.4,8.1,2.6,12.2,3.6l4.5-23.3C172.6,322.2,170,321.4,167.4,320.5L167.4,320.5z"/>
		</g>
	</g>
	<g id="Circle_x5F_3">
		<g id="XMLID_16_">
			<path id="XMLID_363_" class="st1" d="M219.8,115.6c-8.4-1.7-16.9-2.6-25.4-2.6s-17,0.9-25.4,2.6l-16.8-32.5
				c13.7-3.6,27.9-5.5,42.2-5.5c14.3,0,28.5,1.8,42.2,5.5L219.8,115.6z"/>
			<path id="XMLID_360_" class="st2" d="M194.4,80.1c13,0,26,1.6,38.5,4.6l-14.5,28.1c-7.9-1.5-16-2.2-24-2.2s-16.1,0.8-24,2.2
				l-14.5-28.1C168.5,81.7,181.4,80.1,194.4,80.1 M194.4,75.1c-15.9,0-31.3,2.2-45.8,6.4l19.1,37c8.6-1.9,17.6-2.9,26.7-2.9
				s18.1,1,26.7,2.9l19.1-37C225.7,77.4,210.3,75.1,194.4,75.1L194.4,75.1z"/>
		</g>
		<g id="XMLID_18_">
			<path id="XMLID_357_" class="st1" d="M302.4,172.3c-10-15.6-23.4-29-38.9-38.9l10.5-35.1c26.8,14.9,48.6,36.8,63.5,63.5
				L302.4,172.3z"/>
			<path id="XMLID_353_" class="st2" d="M275.4,101.9c24.2,14.1,44.2,34.1,58.3,58.3l-30.3,9.1c-9.7-14.7-22.4-27.4-37.1-37.1
				L275.4,101.9 M272.4,94.6l-12,39.9c16.5,10.3,30.5,24.2,40.8,40.8l39.9-12C325.6,134.1,301.6,110.1,272.4,94.6L272.4,94.6z"/>
		</g>
		<g id="XMLID_78_">
			<path id="XMLID_351_" class="st1" d="M36.3,283.4c-3.6-13.7-5.5-27.9-5.5-42.2c0-14.3,1.8-28.5,5.5-42.2l32.5,16.8
				c-1.7,8.4-2.6,16.9-2.6,25.4c0,8.5,0.9,17,2.6,25.4L36.3,283.4z"/>
			<path id="XMLID_347_" class="st2" d="M37.9,202.7L66,217.2c-1.5,7.9-2.2,16-2.2,24c0,8,0.8,16.1,2.2,24l-28.1,14.5
				c-3.1-12.5-4.6-25.5-4.6-38.5C33.3,228.2,34.9,215.3,37.9,202.7 M34.7,195.5c-4.2,14.5-6.4,29.9-6.4,45.8
				c0,15.9,2.2,31.3,6.4,45.8l37-19.1c-1.9-8.6-2.9-17.6-2.9-26.7c0-9.2,1-18.1,2.9-26.7L34.7,195.5L34.7,195.5z"/>
		</g>
		<g id="XMLID_80_">
			<path id="XMLID_345_" class="st1" d="M114.9,384.3c-26.8-14.9-48.6-36.8-63.5-63.5l35.1-10.5c10,15.6,23.4,29,38.9,38.9
				L114.9,384.3z"/>
			<path id="XMLID_342_" class="st2" d="M85.4,313.2c9.7,14.7,22.4,27.4,37.1,37.1l-9.1,30.3c-24.2-14.1-44.2-34.1-58.3-58.3
				L85.4,313.2 M87.6,307.3l-39.9,12c15.5,29.2,39.5,53.2,68.7,68.7l12-39.9C111.8,337.8,97.9,323.8,87.6,307.3L87.6,307.3z"/>
		</g>
		<g id="XMLID_81_">
			<path id="XMLID_340_" class="st1" d="M263.4,349.2c15.6-10,29-23.4,38.9-38.9l35.1,10.5c-14.9,26.8-36.8,48.6-63.5,63.5
				L263.4,349.2z"/>
			<path id="XMLID_337_" class="st2" d="M303.4,313.2l30.3,9.1c-14.1,24.2-34.1,44.2-58.3,58.3l-9.1-30.3
				C281,340.5,293.7,327.8,303.4,313.2 M301.3,307.3c-10.3,16.5-24.2,30.5-40.8,40.8l12,39.9c29.2-15.5,53.2-39.5,68.7-68.7
				L301.3,307.3L301.3,307.3z"/>
		</g>
		<g id="XMLID_82_">
			<path id="XMLID_336_" class="st1" d="M51.4,161.7c14.9-26.8,36.8-48.6,63.5-63.5l10.5,35.1c-15.6,10-29,23.4-38.9,38.9
				L51.4,161.7z"/>
			<path id="XMLID_333_" class="st2" d="M113.4,101.9l9.1,30.3c-14.7,9.7-27.4,22.4-37.1,37.1l-30.3-9.1
				C69.2,136,89.2,116,113.4,101.9 M116.4,94.6c-29.2,15.5-53.2,39.5-68.7,68.7l39.9,12c10.3-16.5,24.2-30.5,40.8-40.8L116.4,94.6
				L116.4,94.6z"/>
		</g>
		<g id="XMLID_83_">
			<path id="XMLID_358_" class="st1" d="M194.4,404.9c-14.3,0-28.5-1.8-42.2-5.5l16.8-32.5c8.4,1.7,16.9,2.6,25.4,2.6
				s17-0.9,25.4-2.6l16.8,32.5C222.9,403,208.7,404.9,194.4,404.9z"/>
			<path id="XMLID_341_" class="st2" d="M218.4,369.7l14.5,28.1c-12.5,3.1-25.5,4.6-38.5,4.6s-26-1.6-38.5-4.6l14.5-28.1
				c7.9,1.5,16,2.2,24,2.2S210.5,371.2,218.4,369.7 M221.2,364c-8.6,1.9-17.6,2.9-26.7,2.9s-18.1-1-26.7-2.9l-19.1,37
				c14.5,4.2,29.9,6.4,45.8,6.4s31.3-2.2,45.8-6.4L221.2,364L221.2,364z"/>
		</g>
	</g>
</g>
</svg>
