<?xml version="1.0" encoding="utf-8"?>
<!-- Generator: Adobe Illustrator 23.0.3, SVG Export Plug-In . SVG Version: 6.00 Build 0)  -->
<svg version="1.1" id="Calque_1" xmlns="http://www.w3.org/2000/svg" xmlns:xlink="http://www.w3.org/1999/xlink" x="0px" y="0px"
	 viewBox="0 0 1600 400" style="enable-background:new 0 0 1600 400;" xml:space="preserve">
<style type="text/css">
	.st0{fill:#FFFFFF;}
	.st1{fill:#67C7EB;}
	.st2{display:none;}
	.st3{display:inline;fill:#FFFFFF;}
	.st4{display:inline;fill:#67C7EB;}
</style>
<g id="Stark_x5F_Industries">
	<path id="Dash" class="st0" d="M355.2,260.1c0.4-1.2,0.6-1.9,0.9-2.7c401.7-2.6,803-5.2,1204.9-7.8c-4.4,2.4-259.1,85.5-259.1,85.5
		s60.4-25,90.7-37.4c30.4-12.4,60.8-24.8,91-37.7C1107.6,260.1,731.7,260.1,355.2,260.1z"/>
	<g id="STARK">
		<path id="XMLID_98_" class="st0" d="M731,128c27.4,0,53.9,0.2,80.4,0.2c24.1,0,30.2,18.3,30.2,29.1c0,17-23.3,31.8-28.8,34.2
			c6.6,7.4,9.2,15,11.5,23.5c2.3,8.7,2.5,17.9,3.7,27.4c-16,0-30.7,0-45.9,0c-1.2-7.9-1.9-16.1-3.9-24c-1.6-6.5-4.2-13-7.4-19
			c-2.5-4.7-7-6.4-12.7-2.1c-4.8,14.5-9.8,29.7-14.9,45.1c-31.5,0-63,0-94.9,0c-0.3-5.5-0.6-10.7-0.9-16.4c-15.2,0-30.1,0-46,0
			c-3.7,5-7.9,10.6-12.3,16.5c-16.5,0-33.1,0-51.3,0c31.9-38.8,63.1-76.8,94.1-114.5c16.7,0,32.9,0,49.7,0
			c4.4,35.7,9.1,74.1,13.5,109.6C695.5,237.8,719.2,163.9,731,128z M765.6,174.5c7.7,1.3,14.3-0.1,20.1-4.1c5.7-3.9,8.6-10,6.9-14.4
			c-2.6-6.5-8.3-6.3-13.8-6.2c-1.8,0-3.5,0.5-5.5,0.8C770.8,158.6,768.3,166.4,765.6,174.5z M646.3,200.4c-0.5-11.4-1-22.1-1.5-32.7
			c-0.5-0.1-0.9-0.2-1.4-0.3c-7.7,10.7-15.4,21.5-23.7,33C629.2,200.4,637.3,200.4,646.3,200.4z"/>
		<path id="XMLID_93_" class="st0" d="M601.2,128.1c-3.6,10.3-6.9,19.7-10.2,29.4c-12.7,0-25.1,0-38.1,0
			c-9.3,28.3-18.5,56.4-27.9,84.9c-16.4,0-32.7,0-49.7,0c9.2-28.2,18.3-56.1,27.4-84.3c-23.3,0-40.5,0.2-63.1,0.2
			c-7.9,0-18.1,1.2-18.1,7.3c0,5.6,10,4,26.4,16.7c17.3,13.5,17.6,33,0.6,46.9c-9.8,8-21.3,12.2-33.7,14.2
			c-20,3.3-39.5,1.2-59.6-6.1c2-10,4-19.9,6-29.9c18.4,3.7,48.9,9.4,53.5,0.7c3.5-6.6-16.4-11.4-20.5-13.2
			c-16-7.3-21.8-21.6-15.1-38c7-17,21.5-24.1,38.3-27.5c6-1.2,12.2-1.6,18.4-1.6c53.3-0.1,106.5-0.1,159.8-0.1
			C597.2,127.8,598.8,128,601.2,128.1z"/>
		<path id="XMLID_87_" class="st0" d="M901.2,178.4c21.5-17.6,41.7-34,61.8-50.4c15.6,0,31,0,48.3,0c-23.5,19.2-45.9,37.5-68.7,56.2
			c10.1,19.2,20.1,38.3,30.5,58.1c-18.9,0-37.2,0-56.5,0c-7-13.2-14.4-27-22.5-42.3c-5,14.9-9.5,28.5-14.1,42.4
			c-16.4,0-32.7,0-49.7,0c12.5-38.1,24.8-76,37.3-114.2c16.3,0,32.4,0,49.7,0C912.1,144.5,906.9,160.6,901.2,178.4z"/>
	</g>
	<g id="INDUSTRIES">
		<path id="XMLID_97_" class="st0" d="M1561,187.5c-1.7,4.9-3.3,9.5-5,14.6c-9.9-4.3-20.3-5.5-21-0.4c-0.4,4.8,8.8,6.2,10.1,6.7
			c10.4,4.2,12.7,14.5,4.9,22.7c-5.7,5.9-13.2,8.1-20.9,9.7c-2.7,0.6-5.5,0.7-8.2,0.7c-23.9,0.1-47.8,0-71.6,0c-1.3,0-2.5,0-4.2,0
			c6.3-19.4,12.5-38.4,18.8-57.6c16.4,0,32.8,0,49.7,0c-1.7,5-3.4,9.7-5.1,14.7c-8.2,0-16.2,0-24.4,0c-0.8,2.3-1.5,4.5-2.3,7.1
			c7.5,0,14.5,0,22,0c-1.5,4.6-2.8,8.7-4.2,13c-7.3,0-14.5,0-22,0c-0.8,2.5-1.6,4.8-2.6,7.5c1.3,0.1,2.2,0.3,3.2,0.3
			c12.3,0,24.6,0.1,36.9-0.1c3.8-0.1,14.4,0,14.6-3.4c0.2-2.8-9.4-4.7-14.3-8.8c-7.8-6.7-6.4-15-1.5-20.3c5-5.7,11.6-8.5,18.9-9.7
			C1542.3,182.7,1551.6,183.9,1561,187.5z"/>
		<path id="XMLID_94_" class="st0" d="M1394.5,241.4c-0.9-4.9-1.5-9.7-2.6-14.3c-0.6-2.5-1.8-4.9-3.1-7.2c-1.1-1.9-2.8-3.1-5.5-1.8
			c-2.5,7.6-5.1,15.4-7.7,23.3c-8.3,0-16.4,0-25,0c6.3-19.2,12.5-38.3,18.8-57.6c4.4,0,8.6,0,12.8,0c7.2,0,14.5,0,21.7,0
			c1.6,0,3.2,0,4.8,0.1c6.3,0.6,11.8,2.6,14.2,9.1c2.4,6.5-0.1,12-4.9,16.4c-2.4,2.2-5.3,3.9-8.4,6.2c5.4,6.2,6.8,13.8,7.3,21.8
			c0.3,0,0.5,0,0.8,0c5.8-17.8,11.6-35.6,17.5-53.4c8.3,0,16.5,0,25,0c-6.3,19.3-12.5,38.3-18.8,57.5
			C1425.7,241.4,1410,241.4,1394.5,241.4z M1386.7,207.2c3.9,0.5,7.1-0.2,9.8-2.4c2.2-1.8,4.1-3.9,3-7.1c-1.1-3-3.8-2.9-6.3-3
			c-0.8,0-1.6,0.2-2.5,0.3C1389.4,199,1388.1,202.9,1386.7,207.2z"/>
		<path id="XMLID_91_" class="st0" d="M1042.8,183.9c7.7,0,15.1,0,22.7,0c5.6,8.3,11.3,16.6,17.4,25.6c3-8.9,5.7-17.3,8.5-25.5
			c8.4,0,16.5,0,25,0c-6.3,19.3-12.5,38.3-18.8,57.5c-8.4,0-16.6,0-25.1,0c-5-7.8-10-15.7-15.5-24.3c-2.8,8.5-5.3,16.4-7.9,24.3
			c-8.2,0-16.3,0-25,0C1030.3,222.1,1036.5,203,1042.8,183.9z"/>
		<path id="XMLID_88_" class="st0" d="M1122.2,184.2c13.4,0,26.4-1.1,39.1,0.3c15.6,1.7,22.8,14.6,17.7,29.5
			c-5.4,15.6-16.9,24.4-32.9,26.6c-9.4,1.3-19,0.7-28.5,0.8c-4.5,0.1-8.9,0-14.1,0C1109.9,222.1,1116.1,203.1,1122.2,184.2z
			 M1142.3,199.5c-1.5,4.5-2.9,8.8-4.3,13.2c-1.4,4.3-2.8,8.6-4.2,12.9c11.5,2.4,21.7-7.6,22.9-17c0.6-4.9-2.2-8.6-7.2-9.1
			C1147.3,199.3,1145,199.5,1142.3,199.5z"/>
		<path id="XMLID_86_" class="st0" d="M1191.1,183.9c8.6,0,16.6,0,25.1,0c-1.4,4.2-2.7,8.2-3.9,12.2c-2.1,6.8-4.3,13.5-6,20.4
			c-0.8,3-0.6,6.5,2.5,8.3c3.3,1.8,6.5,0.5,9.3-1.6c3.7-2.8,5.6-6.8,7.1-11.2c2.7-8.3,5.5-16.5,8.2-24.8c0.4-1.1,0.8-2.1,1.2-3.3
			c8.2,0,16.4,0,24.9,0c-2.6,7.7-5.1,15.3-7.8,22.8c-1.8,5-3.6,9.9-5.8,14.7c-4.9,10.7-13.4,16.9-25,18.8
			c-8.5,1.4-17.1,2.2-25.6,0.1c-11.7-2.9-17.4-11.4-14.5-22.9C1183.5,206.1,1187.6,195.1,1191.1,183.9z"/>
		<path id="XMLID_85_" class="st0" d="M995,241.4c6.3-19.2,12.5-38.3,18.8-57.5c8.2,0,16.3,0,25,0c-6.3,19.2-12.5,38.3-18.8,57.5
			C1011.7,241.4,1003.6,241.4,995,241.4z"/>
		<path id="XMLID_1_" class="st0" d="M1368.3,184c-1.8,5.2-3.4,9.9-5.1,14.8c-6.4,0-12.6,0-19.1,0c-4.7,14.2-9.3,28.3-14,42.7
			c-8.2,0-16.4,0-25,0c4.6-14.2,9.2-28.2,13.8-42.4c-11.7,0-20.3,0.1-31.7,0.1c-4,0-9.1,0.6-9.1,3.7c0,2.8,5,2,13.3,8.4
			c8.7,6.8,8.8,16.6,0.3,23.6c-4.9,4-10.7,6.1-16.9,7.2c-10.1,1.7-19.9,0.6-30-3c1-5,2-10,3-15c9.2,1.8,24.5,4.7,26.9,0.4
			c1.8-3.3-8.2-5.7-10.3-6.7c-8-3.7-11-10.9-7.6-19.1c3.5-8.5,10.8-12.1,19.2-13.8c3-0.6,6.2-0.8,9.2-0.8c26.8-0.1,53.5,0,80.3,0
			C1366.3,183.9,1367.1,184,1368.3,184z"/>
	</g>
</g>
<g id="Heart">
	<g id="Circle_x5F_0">
		<path id="XMLID_322_" class="st0" d="M240.2,233.4c-18.3,0-33.2-14.9-33.2-33.2s14.9-33.2,33.2-33.2c18.3,0,33.2,14.9,33.2,33.2
			S258.5,233.4,240.2,233.4z"/>
		<path id="XMLID_290_" class="st1" d="M240.2,169.1c17.2,0,31.2,14,31.2,31.2s-14,31.2-31.2,31.2s-31.2-14-31.2-31.2
			S223,169.1,240.2,169.1 M240.2,165.1c-19.4,0-35.2,15.8-35.2,35.2s15.8,35.2,35.2,35.2s35.2-15.8,35.2-35.2
			S259.6,165.1,240.2,165.1L240.2,165.1z"/>
	</g>
	<g id="Circle_x5F_1">
		<g id="XMLID_22_">
			<path id="XMLID_359_" class="st0" d="M278.6,174c-3.3-4.8-7.5-9-12.3-12.3l6.4-11.2c6.7,4.4,12.6,10.3,17,17L278.6,174z"/>
			<path id="XMLID_329_" class="st1" d="M273.3,152.7c5.6,3.9,10.5,8.8,14.4,14.4l-8.6,5c-3-4.1-6.6-7.7-10.7-10.7L273.3,152.7
				 M272.2,148.4l-7.9,13.8c5.6,3.5,10.3,8.3,13.8,13.8l13.7-7.9C286.9,160.1,280.2,153.4,272.2,148.4L272.2,148.4z"/>
		</g>
		<g id="XMLID_37_">
			<path id="XMLID_326_" class="st0" d="M190.6,167.5c4.4-6.7,10.3-12.6,17-17l6.4,11.2c-4.8,3.3-9,7.5-12.3,12.3L190.6,167.5z"/>
			<path id="XMLID_321_" class="st1" d="M207.1,152.7l4.9,8.6c-4.1,3-7.8,6.6-10.7,10.7l-8.6-5C196.6,161.5,201.5,156.6,207.1,152.7
				 M208.1,148.4c-8,4.9-14.7,11.7-19.7,19.6l13.7,7.9c3.6-5.5,8.3-10.3,13.8-13.8L208.1,148.4L208.1,148.4z"/>
		</g>
		<g id="XMLID_38_">
			<path id="XMLID_317_" class="st0" d="M266.3,238.8c4.8-3.3,9-7.5,12.3-12.3l11.1,6.4c-4.4,6.7-10.3,12.6-17,17L266.3,238.8z"/>
			<path id="XMLID_311_" class="st1" d="M279.1,228.5l8.6,5c-3.9,5.6-8.8,10.5-14.4,14.4l-4.9-8.6
				C272.4,236.2,276.1,232.6,279.1,228.5 M278.2,224.5c-3.6,5.5-8.3,10.3-13.8,13.8l7.9,13.8c8-4.9,14.7-11.7,19.7-19.6L278.2,224.5
				L278.2,224.5z"/>
		</g>
		<g id="XMLID_39_">
			<path id="XMLID_309_" class="st0" d="M213.2,147.1c7.3-3.7,14.8-5.7,22.8-6.1v12.8c-5,0.4-11.1,1.9-16.4,4.5L213.2,147.1z"/>
			<path id="XMLID_306_" class="st1" d="M235,143v9.4c-5,0.5-9.8,1.8-14.5,3.9l-5-8.6c6.2-2.9,12.6-4.4,19.4-5 M238,139.4
				c-10,0.3-18.6,2.8-26.6,7.1l8,13.8c5.7-2.9,11.7-4.7,18.7-5V139.4L238,139.4z"/>
		</g>
		<g id="XMLID_40_">
			<path id="XMLID_304_" class="st0" d="M207.6,249.9c-6.7-4.4-12.6-10.3-17-17l11.1-6.4c3.3,4.8,7.5,9,12.3,12.3L207.6,249.9z"/>
			<path id="XMLID_301_" class="st1" d="M201.3,228.5c3,4.1,6.6,7.7,10.7,10.7l-4.9,8.6c-5.6-3.9-10.5-8.8-14.4-14.4L201.3,228.5
				 M202.2,224.5l-13.7,7.9c5,7.9,11.7,14.7,19.7,19.6l7.9-13.8C210.5,234.8,205.7,230,202.2,224.5L202.2,224.5z"/>
		</g>
		<g id="XMLID_41_">
			<path id="XMLID_299_" class="st0" d="M259.5,158.2c-5.2-2.6-9.5-4.1-17.5-4.5v-12.8c9,0.4,15.9,2.3,23.5,6.2L259.5,158.2z"/>
			<path id="XMLID_296_" class="st1" d="M244,142.8c7.2,0.5,13.4,2,19.8,5.1l-4.7,8.5c-4.5-2.1-8.8-3.5-15.1-4V143 M241,139.4v15.8
				c9,0.3,13.7,2.1,19.3,5l7.6-13.8C260,142.2,252,139.7,241,139.4L241,139.4z"/>
		</g>
		<g id="XMLID_42_">
			<path id="XMLID_294_" class="st0" d="M180.9,197c0.5-9,2.5-16,6.2-23.4l11.2,6.6c-2.6,5.3-4.1,10.8-4.5,16.8H180.9z"/>
			<path id="XMLID_291_" class="st1" d="M187.7,175.5l8.6,5c-2.1,4.7-3.4,9.5-3.9,14.5h-9.9C183,188.1,184.7,181.7,187.7,175.5
				 M186.5,171.3c-4.3,8-6.9,16.7-7.2,26.7h15.8c0.3-7,2.1-13,5.1-18.7L186.5,171.3L186.5,171.3z"/>
		</g>
		<g id="XMLID_43_">
			<path id="XMLID_289_" class="st0" d="M282.1,220.1c2.6-5.2,4.1-10.1,4.5-17.1h12.8c-0.4,8-2.3,15.8-6.2,23.4L282.1,220.1z"/>
			<path id="XMLID_286_" class="st1" d="M298,204c-0.5,7.3-2.2,13.5-5.3,20l-8.5-4.7c2.1-4.5,3.5-8.9,3.9-15.2H298 M301.1,201h-15.8
				c-0.3,9-2.1,13.8-5.1,19.5l13.7,7.6C298.2,220.1,300.7,212,301.1,201L301.1,201z"/>
		</g>
		<g id="XMLID_44_">
			<path id="XMLID_284_" class="st0" d="M286.6,197c-0.4-6-1.9-11.5-4.5-16.9l11.2-6.4c3.7,7.3,5.7,14.3,6.2,23.3H286.6z"/>
			<path id="XMLID_281_" class="st1" d="M292.6,175.5c2.9,6.2,4.7,12.7,5.2,19.5H288c-0.5-5-1.8-9.8-3.9-14.5L292.6,175.5
				 M293.9,171.3l-13.7,8c3,5.7,4.8,11.7,5.1,18.7h15.8C300.7,188,298.2,179.3,293.9,171.3L293.9,171.3z"/>
		</g>
		<g id="XMLID_45_">
			<path id="XMLID_279_" class="st0" d="M242,246.7c8-0.4,12.3-1.9,17.5-4.5l6,11.1c-7.6,3.9-14.5,5.7-23.5,6.2V246.7z"/>
			<path id="XMLID_276_" class="st1" d="M259.1,244.2l4.7,8.5c-6.4,3.1-12.6,4.7-19.8,5.2v-9.8C250.3,247.7,254.6,246.4,259.1,244.2
				 M260.3,240.3c-5.7,2.9-10.3,4.7-19.3,5v15.8c11-0.3,19-2.8,27-7.1L260.3,240.3L260.3,240.3z"/>
		</g>
		<g id="XMLID_46_">
			<path id="XMLID_274_" class="st0" d="M187.1,226.3c-3.9-7.6-5.8-15.3-6.2-23.3h12.8c0.4,7,1.9,12.1,4.5,17.2L187.1,226.3z"/>
			<path id="XMLID_271_" class="st1" d="M192.1,204c0.5,6.4,1.9,10.7,4,15.2l-8.5,4.7c-3.1-6.5-4.7-12.7-5.2-20h9.6 M195.1,201
				h-15.8c0.3,11,2.9,19.1,7.2,27.1l13.7-7.6C197.2,214.8,195.4,210,195.1,201L195.1,201z"/>
		</g>
		<g id="XMLID_47_">
			<path id="XMLID_269_" class="st0" d="M236,259.6c-8-0.5-15.5-2.5-22.8-6.1l6.3-11.2c5.3,2.6,11.4,4,16.4,4.5V259.6z"/>
			<path id="XMLID_263_" class="st1" d="M220.5,244.2c4.7,2.1,9.4,3.4,14.5,3.9v9.9c-6.8-0.6-13.2-2.3-19.4-5.2L220.5,244.2
				 M219.3,240.3l-8,13.8c8,4.3,16.6,6.8,26.6,7.1v-15.8C231,245,225,243.2,219.3,240.3L219.3,240.3z"/>
		</g>
	</g>
	<g id="Circle_x5F_2">
		<g id="XMLID_15_">
			<path id="XMLID_328_" class="st0" d="M169,121.4c2.8-2.5,5.7-4.9,8.8-7.1l11.3,17.5c-1.9,1.4-3.7,2.9-5.4,4.4L169,121.4z"/>
			<path id="XMLID_310_" class="st1" d="M177.4,116.4l9.7,14.9c-1.1,0.9-2.3,1.8-3.3,2.7l-12.6-12.6
				C173.2,119.7,175.3,118,177.4,116.4 M178.2,112.1c-4,2.8-7.8,5.9-11.4,9.2l16.8,16.8c2.4-2.2,4.9-4.2,7.5-6.1L178.2,112.1
				L178.2,112.1z"/>
		</g>
		<g id="XMLID_36_">
			<path id="XMLID_265_" class="st0" d="M187,108.3c2.7-1.6,5.5-3,8.4-4.4l7.8,19.3c-1.6,0.8-3.3,1.6-4.9,2.5L187,108.3z"/>
			<path id="XMLID_261_" class="st1" d="M194.6,106l6.7,16.5c-0.8,0.4-1.6,0.8-2.5,1.3l-9.7-15C190.9,107.8,192.7,106.9,194.6,106
				 M196.2,101.9c-3.9,1.7-7.7,3.7-11.3,5.9l13,20c2.4-1.4,4.8-2.6,7.3-3.8L196.2,101.9L196.2,101.9z"/>
		</g>
		<g id="XMLID_48_">
			<path id="XMLID_258_" class="st0" d="M155.3,136.4c1.9-2.5,3.9-5,6-7.3l14.7,14.7c-1.2,1.4-2.4,2.8-3.5,4.2L155.3,136.4z"/>
			<path id="XMLID_253_" class="st1" d="M161.4,131.3l12.6,12.6c-0.6,0.7-1.2,1.4-1.8,2.1l-14.8-10
				C158.7,134.4,160,132.8,161.4,131.3 M161.3,126.9c-2.9,3.1-5.6,6.4-8.1,9.8l19.7,13.3c1.6-2.2,3.4-4.3,5.2-6.3L161.3,126.9
				L161.3,126.9z"/>
		</g>
		<g id="XMLID_49_">
			<path id="XMLID_249_" class="st0" d="M205.5,99.8c2.9-1,6-1.9,9.1-2.7l4,20.4c-1.8,0.5-3.5,1-5.3,1.6L205.5,99.8z"/>
			<path id="XMLID_246_" class="st1" d="M213.4,99l3.4,17.5c-0.9,0.2-1.8,0.5-2.7,0.8l-6.7-16.5C209.4,100.1,211.4,99.5,213.4,99
				 M215.7,95.3c-4.2,1-8.3,2.2-12.2,3.6l8.9,22.1c2.6-0.9,5.2-1.7,7.9-2.3L215.7,95.3L215.7,95.3z"/>
		</g>
		<g id="XMLID_50_">
			<path id="XMLID_244_" class="st0" d="M134.1,195c0.2-3.3,0.5-6.5,0.9-9.5l20.4,3.9c-0.2,1.9-0.4,4-0.5,5.6H134.1z"/>
			<path id="XMLID_241_" class="st1" d="M136.3,187.5l17.5,3.5c-0.1,1-0.2,2-0.3,3h-17.8C135.8,191,136,189.5,136.3,187.5
				 M133.7,184c-0.6,4.2-1,9-1.2,13h23.7c0.1-2,0.4-5.7,0.8-8.4L133.7,184L133.7,184z"/>
		</g>
		<g id="XMLID_51_">
			<path id="XMLID_239_" class="st0" d="M137.1,174.7c0.9-3.7,2-7.3,3.3-10.8l19.1,8.1c-0.8,2.2-1.4,4.4-2,6.7L137.1,174.7z"/>
			<path id="XMLID_236_" class="st1" d="M141.3,165.8l16.4,7c-0.4,1.3-0.9,2.7-1.2,4.1l-17.5-3.4
				C139.6,170.9,140.4,168.3,141.3,165.8 M139.5,161.8c-1.7,4.5-3.2,9.2-4.3,14l23.3,4.5c0.8-3.2,1.7-6.2,2.8-9.2L139.5,161.8
				L139.5,161.8z"/>
		</g>
		<g id="XMLID_52_">
			<path id="XMLID_234_" class="st0" d="M144.6,153.8c1.4-2.8,2.9-5.6,4.5-8.3l17.2,11.6c-0.9,1.6-1.8,3.2-2.6,4.8L144.6,153.8z"/>
			<path id="XMLID_231_" class="st1" d="M149.6,147.6l14.8,10c-0.5,0.8-0.9,1.6-1.3,2.4l-16.4-7
				C147.6,151.2,148.6,149.4,149.6,147.6 M148.7,143.3c-2.2,3.6-4.3,7.3-6.1,11.2l21.9,9.3c1.2-2.5,2.5-4.9,3.9-7.2L148.7,143.3
				L148.7,143.3z"/>
		</g>
		<g id="XMLID_53_">
			<path id="XMLID_229_" class="st0" d="M224.8,95.1c3-0.4,6.1-0.7,9.2-0.9V115c-1.3,0.1-3.2,0.3-5.1,0.5L224.8,95.1z"/>
			<path id="XMLID_226_" class="st1" d="M232,96v17.6c0,0.1-1.3,0.1-2.2,0.2l-3.7-17.5c1.9-0.2,3.8-0.4,5.8-0.6 M235,92.6
				c0,0.2-8.1,0.5-12.3,1.2l4.6,23.3c2.7-0.4,5.7-0.7,7.7-0.8V92.6L235,92.6z"/>
		</g>
		<g id="XMLID_54_">
			<path id="XMLID_224_" class="st0" d="M322.9,178.6c-0.6-2.3-1.3-4.5-2-6.7l19.1-8.1c1.3,3.5,2.4,7.2,3.3,10.8L322.9,178.6z"/>
			<path id="XMLID_221_" class="st1" d="M339.1,165.8c0.9,2.5,1.7,5.1,2.3,7.7l-17.5,3.4c-0.4-1.4-0.8-2.8-1.2-4.1L339.1,165.8
				 M340.8,161.8l-21.9,9.3c1.1,3,2,6.1,2.8,9.2l23.3-4.5C344,171,342.6,166.4,340.8,161.8L340.8,161.8z"/>
		</g>
		<g id="XMLID_55_">
			<path id="XMLID_219_" class="st0" d="M316.6,161.9c-0.8-1.6-1.7-3.2-2.6-4.8l17.2-11.6c1.6,2.7,3.2,5.5,4.5,8.3L316.6,161.9z"/>
			<path id="XMLID_216_" class="st1" d="M330.7,147.6c1,1.8,2,3.6,3,5.4l-16.4,7c-0.4-0.8-0.9-1.6-1.3-2.4L330.7,147.6 M331.6,143.3
				l-19.7,13.3c1.4,2.3,2.7,4.7,3.9,7.2l21.9-9.3C335.9,150.7,333.9,146.9,331.6,143.3L331.6,143.3z"/>
		</g>
		<g id="XMLID_56_">
			<path id="XMLID_214_" class="st0" d="M307.8,148c-1.1-1.4-2.3-2.9-3.5-4.2l14.7-14.7c2.1,2.3,4.1,4.8,6,7.3L307.8,148z"/>
			<path id="XMLID_211_" class="st1" d="M319,131.3c1.4,1.5,2.7,3.1,3.9,4.8l-14.8,10c-0.6-0.7-1.2-1.4-1.8-2.1L319,131.3
				 M319.1,126.9l-16.8,16.8c1.8,2,3.6,4.1,5.2,6.3l19.7-13.3C324.7,133.3,322,130,319.1,126.9L319.1,126.9z"/>
		</g>
		<g id="XMLID_57_">
			<path id="XMLID_209_" class="st0" d="M135,215.4c-0.4-2.9-0.7-5.7-0.9-9.4h20.8c0.1,1.9,0.3,3.6,0.5,5.3L135,215.4z"/>
			<path id="XMLID_206_" class="st1" d="M153.5,208c0.1,0,0.2,1.5,0.3,2.4l-17.5,3.6c-0.2-1.9-0.4-3.9-0.6-5.9H153 M156.3,205h-23.7
				c0.2,5,0.5,8.2,1.2,12.4l23.3-4.5C156.7,210.2,156.4,208,156.3,205L156.3,205z"/>
		</g>
		<g id="XMLID_58_">
			<path id="XMLID_204_" class="st0" d="M296.6,136.1c-1.7-1.5-3.5-3-5.4-4.4l11.3-17.5c3.1,2.2,6,4.6,8.8,7.1L296.6,136.1z"/>
			<path id="XMLID_201_" class="st1" d="M302.9,116.4c2.1,1.6,4.2,3.3,6.2,5L296.5,134c-1.1-0.9-2.2-1.8-3.3-2.7L302.9,116.4
				 M302.1,112.1l-13,20c2.6,1.9,5.1,3.9,7.5,6.1l16.8-16.8C309.9,118,306.1,114.9,302.1,112.1L302.1,112.1z"/>
		</g>
		<g id="XMLID_59_">
			<path id="XMLID_199_" class="st0" d="M250.3,115.5c-1.9-0.3-3.8-0.4-6.3-0.5V94.2c4.3,0.2,6.9,0.5,9.9,0.9L250.3,115.5z"/>
			<path id="XMLID_196_" class="st1" d="M245,95.7c0,0.1,4.9,0.3,6.9,0.6l-3.2,17.5c-1.1-0.1-1.6-0.2-3.6-0.3V96 M242,92.6v23.7
				c4,0.1,6.5,0.4,9.2,0.8l4-23.3C251.1,93.2,248,92.8,242,92.6L242,92.6z"/>
		</g>
		<g id="XMLID_60_">
			<path id="XMLID_194_" class="st0" d="M267.1,119.1c-1.7-0.6-3.5-1.1-5.3-1.6l4-20.4c3.1,0.8,6.2,1.7,9.1,2.7L267.1,119.1z"/>
			<path id="XMLID_191_" class="st1" d="M266.9,99c2,0.5,4,1.1,5.9,1.7l-6.7,16.5c-0.9-0.3-1.8-0.5-2.7-0.8L266.9,99 M264.6,95.3
				l-4.5,23.3c2.7,0.7,5.3,1.4,7.9,2.3l8.9-22.1C272.9,97.5,268.8,96.3,264.6,95.3L264.6,95.3z"/>
		</g>
		<g id="XMLID_61_">
			<path id="XMLID_189_" class="st0" d="M282,125.8c-1.6-0.9-3.2-1.7-4.9-2.5l7.8-19.3c2.9,1.4,5.7,2.8,8.4,4.4L282,125.8z"/>
			<path id="XMLID_186_" class="st1" d="M285.8,106c1.9,0.9,3.7,1.9,5.5,2.8l-9.7,15c-0.8-0.4-1.6-0.9-2.5-1.3L285.8,106
				 M284.2,101.9l-8.9,22.1c2.5,1.2,4.9,2.4,7.3,3.8l13-20C291.9,105.6,288.1,103.7,284.2,101.9L284.2,101.9z"/>
		</g>
		<g id="XMLID_62_">
			<path id="XMLID_184_" class="st0" d="M313.9,243.4c0.9-1.6,1.8-3.2,2.6-4.8l19.1,8.1c-1.4,2.8-2.9,5.6-4.5,8.3L313.9,243.4z"/>
			<path id="XMLID_181_" class="st1" d="M317.3,240.5l16.4,7c-0.9,1.8-1.9,3.6-3,5.4l-14.8-10C316.4,242.2,316.8,241.3,317.3,240.5
				 M315.8,236.7c-1.2,2.5-2.5,4.9-3.9,7.2l19.7,13.3c2.2-3.6,4.3-7.3,6.1-11.2L315.8,236.7L315.8,236.7z"/>
		</g>
		<g id="XMLID_63_">
			<path id="XMLID_179_" class="st0" d="M304.3,256.7c1.2-1.4,2.4-2.8,3.5-4.2l17.2,11.6c-1.9,2.5-3.9,5-6,7.3L304.3,256.7z"/>
			<path id="XMLID_176_" class="st1" d="M308.1,254.5l14.8,10c-1.3,1.6-2.6,3.2-3.9,4.8l-12.6-12.6
				C307,255.9,307.6,255.2,308.1,254.5 M307.5,250.4c-1.6,2.2-3.4,4.3-5.2,6.3l16.8,16.8c2.9-3.1,5.6-6.4,8.1-9.8L307.5,250.4
				L307.5,250.4z"/>
		</g>
		<g id="XMLID_64_">
			<path id="XMLID_174_" class="st0" d="M291.2,268.8c1.9-1.4,3.7-2.9,5.4-4.4l14.7,14.7c-2.8,2.5-5.7,4.9-8.8,7.1L291.2,268.8z"/>
			<path id="XMLID_171_" class="st1" d="M296.5,266.5l12.6,12.6c-2,1.7-4.1,3.4-6.2,5l-9.7-14.9
				C294.4,268.3,295.5,267.4,296.5,266.5 M296.7,262.3c-2.4,2.2-4.9,4.2-7.5,6.1l13,20c4-2.8,7.8-5.9,11.4-9.2L296.7,262.3
				L296.7,262.3z"/>
		</g>
		<g id="XMLID_65_">
			<path id="XMLID_169_" class="st0" d="M277.2,277.3c1.6-0.8,3.3-1.6,4.9-2.5l11.3,17.5c-2.7,1.6-5.5,3-8.4,4.4L277.2,277.3z"/>
			<path id="XMLID_166_" class="st1" d="M281.5,276.7l9.7,15c-1.8,1-3.6,1.9-5.5,2.8l-6.7-16.5C279.9,277.6,280.7,277.2,281.5,276.7
				 M282.5,272.7c-2.4,1.4-4.8,2.6-7.3,3.8l8.9,22.1c3.9-1.7,7.7-3.7,11.3-5.9L282.5,272.7L282.5,272.7z"/>
		</g>
		<g id="XMLID_66_">
			<path id="XMLID_164_" class="st0" d="M325,211.3c0.2-1.7,0.4-3.4,0.5-5.3h20.8c-0.2,3.7-0.5,6.5-0.9,9.4L325,211.3z"/>
			<path id="XMLID_161_" class="st1" d="M344.7,208c-0.1,0-0.3,3.9-0.6,5.8l-17.5-3.3c0.1-0.9,0.2-2.5,0.3-2.5H345 M347.8,205h-23.7
				c-0.1,3-0.4,5.1-0.8,7.8l23.3,4.7C347.3,213.3,347.7,210,347.8,205L347.8,205z"/>
		</g>
		<g id="XMLID_67_">
			<path id="XMLID_159_" class="st0" d="M325.5,195c-0.1-1.6-0.3-3.7-0.5-5.6l20.4-3.9c0.4,2.9,0.7,6.2,0.9,9.5H325.5z"/>
			<path id="XMLID_156_" class="st1" d="M344.1,187.5c0.2,2,0.4,3.5,0.6,6.5h-17.8c-0.1-1-0.2-2-0.3-3L344.1,187.5 M346.6,184
				l-23.3,4.6c0.4,2.7,0.7,6.4,0.8,8.4h23.7C347.7,193,347.3,188.2,346.6,184L346.6,184z"/>
		</g>
		<g id="XMLID_68_">
			<path id="XMLID_154_" class="st0" d="M261.8,282.9c1.8-0.5,3.5-1,5.3-1.6l7.8,19.3c-2.9,1-6,1.9-9.1,2.7L261.8,282.9z"/>
			<path id="XMLID_151_" class="st1" d="M266.2,283.2l6.7,16.5c-1.9,0.6-3.9,1.2-5.9,1.7l-3.4-17.5
				C264.4,283.8,265.3,283.5,266.2,283.2 M267.9,279.5c-2.6,0.9-5.2,1.7-7.9,2.3l4.5,23.3c4.2-1,8.3-2.2,12.2-3.6L267.9,279.5
				L267.9,279.5z"/>
		</g>
		<g id="XMLID_69_">
			<path id="XMLID_149_" class="st0" d="M140.4,236.7c-1.3-3.5-2.4-7.2-3.3-10.8l20.4-4c0.6,2.3,1.3,4.5,2,6.7L140.4,236.7z"/>
			<path id="XMLID_146_" class="st1" d="M156.4,223.6c0.4,1.4,0.8,2.8,1.2,4.1l-16.4,7c-0.9-2.5-1.7-5.1-2.3-7.7L156.4,223.6
				 M158.6,220.1l-23.3,4.5c1.1,4.8,2.5,9.5,4.3,14l21.9-9.3C160.3,226.4,159.3,223.3,158.6,220.1L158.6,220.1z"/>
		</g>
		<g id="XMLID_70_">
			<path id="XMLID_144_" class="st0" d="M320.8,228.6c0.8-2.2,1.4-4.4,2-6.7l20.4,4c-0.9,3.7-2,7.3-3.3,10.8L320.8,228.6z"/>
			<path id="XMLID_141_" class="st1" d="M324,223.6l17.5,3.4c-0.7,2.6-1.5,5.2-2.3,7.7l-16.4-7C323.2,226.4,323.6,225,324,223.6
				 M321.8,220.1c-0.8,3.2-1.7,6.2-2.8,9.2l21.9,9.3c1.7-4.5,3.2-9.2,4.3-14L321.8,220.1L321.8,220.1z"/>
		</g>
		<g id="XMLID_71_">
			<path id="XMLID_139_" class="st0" d="M161.3,271.4c-2.1-2.3-4.1-4.8-6-7.3l17.2-11.6c1.1,1.4,2.3,2.9,3.5,4.2L161.3,271.4z"/>
			<path id="XMLID_136_" class="st1" d="M172.2,254.5c0.6,0.7,1.2,1.4,1.8,2.1l-12.6,12.6c-1.4-1.5-2.7-3.1-3.9-4.8L172.2,254.5
				 M172.9,250.4l-19.7,13.3c2.5,3.4,5.2,6.7,8.1,9.8l16.8-16.8C176.2,254.7,174.5,252.6,172.9,250.4L172.9,250.4z"/>
		</g>
		<g id="XMLID_72_">
			<path id="XMLID_134_" class="st0" d="M149.2,255.1c-1.6-2.7-3.1-5.5-4.5-8.3l19.1-8.1c0.8,1.6,1.7,3.2,2.6,4.8L149.2,255.1z"/>
			<path id="XMLID_131_" class="st1" d="M163.1,240.5c0.4,0.8,0.9,1.6,1.3,2.4l-14.8,10c-1-1.8-2-3.6-3-5.4L163.1,240.5
				 M164.5,236.7l-21.9,9.3c1.8,3.9,3.9,7.6,6.1,11.2l19.7-13.3C167,241.5,165.7,239.1,164.5,236.7L164.5,236.7z"/>
		</g>
		<g id="XMLID_73_">
			<path id="XMLID_129_" class="st0" d="M177.8,286.2c-3.1-2.2-6-4.6-8.8-7.1l14.7-14.7c1.7,1.5,3.5,3,5.4,4.4L177.8,286.2z"/>
			<path id="XMLID_126_" class="st1" d="M183.8,266.5c1.1,0.9,2.2,1.8,3.3,2.7l-9.7,14.9c-2.1-1.6-4.2-3.3-6.2-5L183.8,266.5
				 M183.7,262.3l-16.8,16.8c3.6,3.3,7.4,6.4,11.4,9.2l13-20C188.6,266.5,186.1,264.5,183.7,262.3L183.7,262.3z"/>
		</g>
		<g id="XMLID_74_">
			<path id="XMLID_124_" class="st0" d="M234,306.3c-3.1-0.2-6.3-0.5-9.2-0.9l4.1-20.4c1.9,0.2,3.8,0.4,5.1,0.5V306.3z"/>
			<path id="XMLID_121_" class="st1" d="M229.8,286.7c0.9,0.1,2.2,0.2,2.2,0.2v17.8c-2-0.1-3.9-0.3-5.8-0.6L229.8,286.7
				 M227.4,283.4l-4.8,23.3c4.2,0.6,8.4,1,12.4,1.2v-23.7C233,284,230.1,283.7,227.4,283.4L227.4,283.4z"/>
		</g>
		<g id="XMLID_75_">
			<path id="XMLID_119_" class="st0" d="M244,285.6c2.5-0.1,4.3-0.3,6.3-0.5l3.6,20.4c-3,0.4-5.6,0.7-9.9,0.9V285.6z"/>
			<path id="XMLID_116_" class="st1" d="M248.8,286.7l3,17.5c-2,0.3-3.7,0.5-6.7,0.6V287C247,286.9,247.7,286.8,248.8,286.7
				 M251.2,283.4c-2.7,0.4-5.2,0.7-9.2,0.8v23.7c6-0.2,9.1-0.5,13.2-1.2L251.2,283.4L251.2,283.4z"/>
		</g>
		<g id="XMLID_76_">
			<path id="XMLID_318_" class="st0" d="M195.4,296.6c-2.9-1.4-5.7-2.8-8.4-4.4l11.3-17.5c1.6,0.9,3.2,1.7,4.9,2.5L195.4,296.6z"/>
			<path id="XMLID_113_" class="st1" d="M198.8,276.7c0.8,0.4,1.6,0.9,2.5,1.3l-6.7,16.5c-1.9-0.9-3.7-1.9-5.5-2.8L198.8,276.7
				 M197.8,272.7l-13,20c3.6,2.2,7.4,4.1,11.3,5.9l8.9-22.1C202.6,275.4,200.2,274.1,197.8,272.7L197.8,272.7z"/>
		</g>
		<g id="XMLID_77_">
			<path id="XMLID_332_" class="st0" d="M214.6,303.3c-3.1-0.8-6.2-1.7-9.1-2.7l7.8-19.3c1.7,0.6,3.5,1.1,5.3,1.6L214.6,303.3z"/>
			<path id="XMLID_320_" class="st1" d="M214.1,283.2c0.9,0.3,1.8,0.5,2.7,0.8l-3.4,17.5c-2-0.5-4-1.1-5.9-1.7L214.1,283.2
				 M212.4,279.5l-8.9,22.1c4,1.4,8.1,2.6,12.2,3.6l4.5-23.3C217.6,281.2,215,280.4,212.4,279.5L212.4,279.5z"/>
		</g>
	</g>
	<g id="Circle_x5F_3">
		<g id="XMLID_16_">
			<path id="XMLID_363_" class="st0" d="M264.8,74.6c-8.4-1.7-16.9-2.6-25.4-2.6s-17,0.9-25.4,2.6l-16.8-32.5
				c13.7-3.6,27.9-5.5,42.2-5.5c14.3,0,28.5,1.8,42.2,5.5L264.8,74.6z"/>
			<path id="XMLID_360_" class="st1" d="M239.4,39.1c13,0,26,1.6,38.5,4.6l-14.5,28.1c-7.9-1.5-16-2.2-24-2.2s-16.1,0.8-24,2.2
				l-14.5-28.1C213.5,40.7,226.4,39.1,239.4,39.1 M239.4,34.1c-15.9,0-31.3,2.2-45.8,6.4l19.1,37c8.6-1.9,17.6-2.9,26.7-2.9
				s18.1,1,26.7,2.9l19.1-37C270.7,36.4,255.3,34.1,239.4,34.1L239.4,34.1z"/>
		</g>
		<g id="XMLID_18_">
			<path id="XMLID_357_" class="st0" d="M347.4,131.3c-10-15.6-23.4-29-38.9-38.9l10.5-35.1c26.8,14.9,48.6,36.8,63.5,63.5
				L347.4,131.3z"/>
			<path id="XMLID_353_" class="st1" d="M320.4,60.9c24.2,14.1,44.2,34.1,58.3,58.3l-30.3,9.1c-9.7-14.7-22.4-27.4-37.1-37.1
				L320.4,60.9 M317.4,53.6l-12,39.9c16.5,10.3,30.5,24.2,40.8,40.8l39.9-12C370.6,93.1,346.6,69.1,317.4,53.6L317.4,53.6z"/>
		</g>
		<g id="XMLID_78_">
			<path id="XMLID_351_" class="st0" d="M81.3,242.4c-3.6-13.7-5.5-27.9-5.5-42.2c0-14.3,1.8-28.5,5.5-42.2l32.5,16.8
				c-1.7,8.4-2.6,16.9-2.6,25.4c0,8.5,0.9,17,2.6,25.4L81.3,242.4z"/>
			<path id="XMLID_347_" class="st1" d="M82.9,161.7l28.1,14.5c-1.5,7.9-2.2,16-2.2,24c0,8,0.8,16.1,2.2,24l-28.1,14.5
				c-3.1-12.5-4.6-25.5-4.6-38.5C78.3,187.2,79.9,174.3,82.9,161.7 M79.7,154.5c-4.2,14.5-6.4,29.9-6.4,45.8
				c0,15.9,2.2,31.3,6.4,45.8l37-19.1c-1.9-8.6-2.9-17.6-2.9-26.7c0-9.2,1-18.1,2.9-26.7L79.7,154.5L79.7,154.5z"/>
		</g>
		<g id="XMLID_80_">
			<path id="XMLID_345_" class="st0" d="M159.9,343.3c-26.8-14.9-48.6-36.8-63.5-63.5l35.1-10.5c10,15.6,23.4,29,38.9,38.9
				L159.9,343.3z"/>
			<path id="XMLID_342_" class="st1" d="M130.4,272.2c9.7,14.7,22.4,27.4,37.1,37.1l-9.1,30.3c-24.2-14.1-44.2-34.1-58.3-58.3
				L130.4,272.2 M132.6,266.3l-39.9,12c15.5,29.2,39.5,53.2,68.7,68.7l12-39.9C156.8,296.8,142.9,282.8,132.6,266.3L132.6,266.3z"/>
		</g>
		<g id="XMLID_81_">
			<path id="XMLID_340_" class="st0" d="M308.4,308.2c15.6-10,29-23.4,38.9-38.9l35.1,10.5c-14.9,26.8-36.8,48.6-63.5,63.5
				L308.4,308.2z"/>
			<path id="XMLID_337_" class="st1" d="M348.4,272.2l30.3,9.1c-14.1,24.2-34.1,44.2-58.3,58.3l-9.1-30.3
				C326,299.5,338.7,286.8,348.4,272.2 M346.3,266.3c-10.3,16.5-24.2,30.5-40.8,40.8l12,39.9c29.2-15.5,53.2-39.5,68.7-68.7
				L346.3,266.3L346.3,266.3z"/>
		</g>
		<g id="XMLID_82_">
			<path id="XMLID_336_" class="st0" d="M96.4,120.7c14.9-26.8,36.8-48.6,63.5-63.5l10.5,35.1c-15.6,10-29,23.4-38.9,38.9
				L96.4,120.7z"/>
			<path id="XMLID_333_" class="st1" d="M158.4,60.9l9.1,30.3c-14.7,9.7-27.4,22.4-37.1,37.1l-30.3-9.1
				C114.2,95,134.2,75,158.4,60.9 M161.4,53.6c-29.2,15.5-53.2,39.5-68.7,68.7l39.9,12c10.3-16.5,24.2-30.5,40.8-40.8L161.4,53.6
				L161.4,53.6z"/>
		</g>
		<g id="XMLID_83_">
			<path id="XMLID_358_" class="st0" d="M239.4,363.9c-14.3,0-28.5-1.8-42.2-5.5l16.8-32.5c8.4,1.7,16.9,2.6,25.4,2.6
				s17-0.9,25.4-2.6l16.8,32.5C267.9,362,253.7,363.9,239.4,363.9z"/>
			<path id="XMLID_341_" class="st1" d="M263.4,328.7l14.5,28.1c-12.5,3.1-25.5,4.6-38.5,4.6s-26-1.6-38.5-4.6l14.5-28.1
				c7.9,1.5,16,2.2,24,2.2S255.5,330.2,263.4,328.7 M266.2,323c-8.6,1.9-17.6,2.9-26.7,2.9s-18.1-1-26.7-2.9l-19.1,37
				c14.5,4.2,29.9,6.4,45.8,6.4s31.3-2.2,45.8-6.4L266.2,323L266.2,323z"/>
		</g>
		<g id="XMLID_2_" class="st2">
			<path class="st3" d="M364.9,227.9c4.3-18,4.7-36.9,1.2-55.1l32.6-16.7c7.8,29.6,7.1,60.5-1.9,89.8L364.9,227.9z"/>
			<path class="st4" d="M397,159.8c6.6,27.2,6,55.5-1.7,82.4l-27.5-15.6c3.9-17.2,4.2-35.1,1.1-52.4L397,159.8 M400.3,152.5l-37,19
				c4,19,3.6,38.8-1.2,57.7l36.2,20.5C408.5,218.2,409.2,184.3,400.3,152.5L400.3,152.5z"/>
		</g>
	</g>
</g>
</svg>
